<!DOCTYPE svg PUBLIC "-//W3C//DTD SVG 1.1//EN" "http://www.w3.org/Graphics/SVG/1.1/DTD/svg11.dtd">
<!-- Uploaded to: SVG Repo, www.svgrepo.com, Transformed by: SVG Repo Mixer Tools -->
<svg fill="#efefef" height="64px" width="64px" version="1.1" id="Layer_1" xmlns="http://www.w3.org/2000/svg" xmlns:xlink="http://www.w3.org/1999/xlink" viewBox="0 0 512 512" xml:space="preserve">
<g id="SVGRepo_bgCarrier" stroke-width="0"/>
<g id="SVGRepo_tracerCarrier" stroke-linecap="round" stroke-linejoin="round"/>
<g id="SVGRepo_iconCarrier"> <g> <g> <path d="M456.46,364.167V147.833C540.703,124.956,524.067,0,436.767,0c-34.67,0-63.921,23.58-72.6,55.54H147.832 C139.153,23.58,109.901,0,75.232,0C-12.064,0-28.708,124.954,55.54,147.833v216.336C-28.704,387.044-12.068,512,75.232,512 c34.67,0,63.921-23.58,72.6-55.54h216.336c8.678,31.961,37.93,55.54,72.599,55.54C524.063,512,540.708,387.046,456.46,364.167z M436.767,39.385c19.767,0,35.848,16.081,35.848,35.848s-16.081,35.848-35.848,35.848s-35.848-16.082-35.848-35.848 C400.919,55.465,417.001,39.385,436.767,39.385z M39.384,75.232c0-19.767,16.081-35.848,35.848-35.848 s35.848,16.081,35.848,35.848S94.999,111.08,75.232,111.08S39.384,94.998,39.384,75.232z M75.232,472.615 c-19.767,0-35.848-16.081-35.848-35.848s16.081-35.848,35.848-35.848S111.08,417,111.08,436.768S94.998,472.615,75.232,472.615z M364.167,417.075H147.832c-6.974-25.679-27.229-45.934-52.908-52.908V147.833c25.679-6.974,45.934-27.229,52.908-52.908h216.336 c6.974,25.679,27.229,45.934,52.908,52.908v216.336C391.396,371.141,371.141,391.396,364.167,417.075z M436.767,472.615 c-19.767,0-35.848-16.081-35.848-35.848s16.082-35.848,35.848-35.848c19.767,0,35.848,16.081,35.848,35.848 S456.534,472.615,436.767,472.615z"/> </g> </g> </g>
</svg>