<!DOCTYPE svg PUBLIC "-//W3C//DTD SVG 1.1//EN" "http://www.w3.org/Graphics/SVG/1.1/DTD/svg11.dtd">
<!-- Uploaded to: SVG Repo, www.svgrepo.com, Transformed by: SVG Repo Mixer Tools -->
<svg width="64px" height="64px" viewBox="0 0 100 100" data-name="Layer 2" id="Layer_2" xmlns="http://www.w3.org/2000/svg" fill="none" stroke="currentColor">

<g id="SVGRepo_bgCarrier" stroke-width="0"/>

<g id="SVGRepo_tracerCarrier" stroke-linecap="round" stroke-linejoin="round"/>

<g id="SVGRepo_iconCarrier">

<path d="M63.62,34A16.85,16.85,0,1,1,46.78,17.11" stroke="currentColor" fill="none" stroke-width="6" stroke-linecap="round" stroke-linejoin="round"/>

<polygon points="63.62 22.79 57.17 33.12 70.06 33.12 63.62 22.79" stroke="currentColor" fill="none" stroke-width="6" stroke-linecap="round" stroke-linejoin="round"/>

<path d="M78.09,34A28.07,28.07,0,0,1,63.34,58.67,8.35,8.35,0,0,0,58.88,66v4.07H41.12V66a8.35,8.35,0,0,0-4.46-7.33A28.09,28.09,0,1,1,78.09,34Z" stroke="currentColor" fill="none" stroke-width="6" stroke-linecap="round" stroke-linejoin="round"/>

<path d="M35.66,70.07H64.34a0,0,0,0,1,0,0V79.8A14.34,14.34,0,0,1,50,94.14h0A14.34,14.34,0,0,1,35.66,79.8V70.07A0,0,0,0,1,35.66,70.07Z" stroke="currentColor" fill="none" stroke-width="6" stroke-linecap="round" stroke-linejoin="round"/>

<line x1="35.66" x2="64.34" y1="78.09" y2="78.09" stroke="currentColor" fill="none" stroke-width="6" stroke-linecap="round" stroke-linejoin="round"/>

</g>

</svg>