<!DOCTYPE svg PUBLIC "-//W3C//DTD SVG 1.1//EN" "http://www.w3.org/Graphics/SVG/1.1/DTD/svg11.dtd">
<!-- Uploaded to: SVG Repo, www.svgrepo.com, Transformed by: SVG Repo Mixer Tools -->
<svg width="64px" height="64px" viewBox="0 0 24 24" xmlns="http://www.w3.org/2000/svg" fill="currentColor">

<g id="SVGRepo_bgCarrier" stroke-width="0"/>

<g id="SVGRepo_tracerCarrier" stroke-linecap="round" stroke-linejoin="round"/>

<g id="SVGRepo_iconCarrier">

<path fill="currentColor" d="M7.7 1.89c-7.91 1.67-10.38 7.89-0.8 8.81-0.62 1.64-0.99 3.52-1.04 5.37-1.68 1.55-2.8 3.12-2.8 3.12l2.24 2.24-1.85 1.23h5.32c-3.45-3.45-1-4.91 3.08-4.91 4.14 0 6.3 1.69 3.08 4.91h5.38l-1.91-1.23 2.24-2.24s-1.04-1.46-2.62-2.95c-0.03-1.9-0.41-3.84-1.05-5.53 9.58-0.92 7.12-7.14-0.8-8.81-1.92 1.45 0.31 3.75 2.05 2.1 1.73 2.54 0.41 4.69-3.38 3.08 0 0 0 0 0 0-0.45 1.32-1.57 2.28-2.91 2.28-1.35 0-2.46-0.96-2.91-2.28l0 0c-3.79 1.61-5.11-0.54-3.38-3.08 1.75 1.65 3.97-0.65 2.05-2.1zm4.24 1.13c-1.21 0-2.25 1.18-2.25 2.72 0 1.54 1.04 2.72 2.25 2.72 1.21 0 2.25-1.18 2.25-2.72 0-1.54-1.04-2.72-2.25-2.72z"/>

</g>

</svg>