<!DOCTYPE svg PUBLIC "-//W3C//DTD SVG 1.1//EN" "http://www.w3.org/Graphics/SVG/1.1/DTD/svg11.dtd">
<!-- Uploaded to: SVG Repo, www.svgrepo.com, Transformed by: SVG Repo Mixer Tools -->
<svg height="64px" width="64px" version="1.1" id="Layer_1" xmlns="http://www.w3.org/2000/svg" xmlns:xlink="http://www.w3.org/1999/xlink" viewBox="0 0 24 24" xml:space="preserve" fill="currentColor">

<g id="SVGRepo_bgCarrier" stroke-width="0"/>

<g id="SVGRepo_tracerCarrier" stroke-linecap="round" stroke-linejoin="round"/>

<g id="SVGRepo_iconCarrier"> 
<path style="fill:#ededed;" d="M12,12V0.376C12,0.168,11.832,0,11.624,0H0.376C0.168,0,0,0.168,0,0.376v23.248 C0,23.832,0.168,24,0.376,24h23.248c0.208,0,0.376-0.168,0.376-0.376V12.376c0-0.208-0.168-0.376-0.376-0.376H12z"/>
<path style="fill:#f4f7f4;" d="M22.438,12H12.017H12v12h11.624c0.108,0,0.205-0.046,0.274-0.119 c0.063-0.067,0.102-0.158,0.102-0.257V13.582L22.438,12z"/>
<path style="fill:currentColor;" d="M12.017,12H12v12h11.624c0.108,0,0.205-0.046,0.274-0.119L12.017,12z"/>
<path style="fill:#212320;" d="M22.827,13.582H24l-1.578-1.582v1.203C22.422,13.379,22.59,13.582,22.827,13.582z"/>
<path style="fill:#ededed;" d="M10.377,0H0.376C0.272,0,0.178,0.042,0.11,0.11C0.042,0.178,0,0.272,0,0.376V12h12V1.629 L10.377,0z"/>
<path style="fill:currentColor;" d="M0,0.376V12h12L0.11,0.11C0.042,0.178,0,0.272,0,0.376z"/>
<path style="fill:#212320;" d="M10.751,1.629H12L10.377,0v1.253C10.377,1.46,10.544,1.629,10.751,1.629z"/>

<path style="fill:#212320;" d="M4.89,21.212c-1.701,0-3.084-1.563-3.084-3.485s1.383-3.485,3.084-3.485 c0.527,0,1.047,0.153,1.505,0.442c0.176,0.111,0.228,0.343,0.117,0.519c-0.111,0.176-0.343,0.228-0.519,0.117 c-0.337-0.213-0.718-0.325-1.103-0.325c-1.286,0-2.332,1.226-2.332,2.732s1.046,2.732,2.332,2.732 c0.385,0,0.766-0.112,1.103-0.325c0.176-0.111,0.408-0.059,0.519,0.117c0.111,0.176,0.059,0.408-0.117,0.519 C5.937,21.059,5.417,21.212,4.89,21.212z"/>
<path style="fill:#212320;" d="M8.703,21.212c-1.147,0-2.081-0.933-2.081-2.081c0-1.147,0.933-2.081,2.081-2.081 s2.081,0.933,2.081,2.081C10.784,20.279,9.851,21.212,8.703,21.212z M8.703,17.803c-0.733,0-1.329,0.596-1.329,1.329 c0,0.733,0.596,1.329,1.329,1.329s1.329-0.596,1.329-1.329C10.032,18.399,9.436,17.803,8.703,17.803z"/>
<path style="fill:#212320;" d="M20.638,21.212c-0.098,0-0.194-0.038-0.266-0.11l-5.772-5.772v5.51 c0,0.208-0.168,0.376-0.376,0.376c-0.208,0-0.376-0.168-0.376-0.376v-6.418c0-0.152,0.092-0.289,0.232-0.347 c0.141-0.058,0.302-0.026,0.41,0.081l5.778,5.778v-5.51c0-0.208,0.168-0.376,0.376-0.376s0.376,0.168,0.376,0.376v6.418 c0,0.152-0.092,0.289-0.232,0.347C20.736,21.203,20.687,21.212,20.638,21.212z"/>
<path style="fill:#212320;" d="M7.195,9.227H6.568V3.16h0.627c0.208,0,0.376-0.168,0.376-0.376S7.403,2.408,7.195,2.408 H5.191c-0.208,0-0.376,0.168-0.376,0.376s0.168,0.376,0.376,0.376h0.627v6.067H5.191c-0.208,0-0.376,0.168-0.376,0.376 s0.168,0.376,0.376,0.376h2.004c0.208,0,0.376-0.168,0.376-0.376S7.403,9.227,7.195,9.227z"/>
</g>

</svg>