<svg width="64px" height="64px" viewBox="0 0 24 24" id="Layer_1" data-name="Layer 1" xmlns="http://www.w3.org/2000/svg">
<g id="SVGRepo_bgCarrier" stroke-width="0"/>
<g id="SVGRepo_tracerCarrier" stroke-linecap="round" stroke-linejoin="round"/>
<g id="SVGRepo_iconCarrier">
<line fill="none" stroke="currentColor" stroke-miterlimit="10" stroke-width="1.91px" x1="5.3" y1="22.5" x2="7.22" y2="22.5"/>
<line fill="none" stroke="currentColor" stroke-miterlimit="10" stroke-width="1.91px" x1="6.26" y1="19.63" x2="6.26" y2="17.72"/>
<line fill="none" stroke="currentColor" stroke-miterlimit="10" stroke-width="1.91px" x1="2.43" y1="1.46" x2="10.09" y2="1.46"/>
<path fill="none" stroke="currentColor" stroke-miterlimit="10" stroke-width="1.91px" d="M1.48,11C6.26,9.11,6.26,12.93,11,11"/>
<path fill="none" stroke="currentColor" stroke-miterlimit="10" stroke-width="1.91px" d="M11,11A4.78,4.78,0,0,0,8.17,6.64V1.46H4.35V6.64A4.78,4.78,0,0,0,1.48,11c0,3.83,4.78,6.7,4.78,6.7S11,14.85,11,11Z"/>
<line fill="none" stroke="currentColor" stroke-miterlimit="10" stroke-width="1.91px" x1="8.17" y1="5.28" x2="20.61" y2="5.28"/>
<path fill="none" stroke="currentColor" stroke-miterlimit="10" stroke-width="1.91px" d="M16.6,18.67h2.27a3.65,3.65,0,0,1,3.65,3.65v.18a0,0,0,0,1,0,0H13a0,0,0,0,1,0,0v-.18A3.65,3.65,0,0,1,16.6,18.67Z"/>
<line fill="none" stroke="currentColor" stroke-miterlimit="10" stroke-width="1.91px" x1="17.74" y1="0.5" x2="17.74" y2="18.67"/>
</g>
</svg>

