<!DOCTYPE svg PUBLIC "-//W3C//DTD SVG 1.1//EN" "http://www.w3.org/Graphics/SVG/1.1/DTD/svg11.dtd">
<!-- Uploaded to: SVG Repo, www.svgrepo.com, Transformed by: SVG Repo Mixer Tools -->
<svg fill="currentColor" height="64px" width="64px" version="1.1" id="Layer_1" xmlns="http://www.w3.org/2000/svg" xmlns:xlink="http://www.w3.org/1999/xlink" viewBox="0 0 24 24" xml:space="preserve">

<g id="SVGRepo_bgCarrier" stroke-width="0"/>

<g id="SVGRepo_tracerCarrier" stroke-linecap="round" stroke-linejoin="round"/>

<g id="SVGRepo_iconCarrier"> 
  <path d="M19.5,3.77c-1.22,0-2.13,0.59-2.93,1.12l-0.16,0.11c-1.02,0.66-2.17,1.41-4.41,1.41c-2.25,0-3.4-0.75-4.42-1.42 
    l-0.16-0.1C6.63,4.36,5.72,3.77,4.5,3.77C2.03,3.77,0,5.81,0,8.31c0,1.35,0.59,2.62,1.63,3.48c0.06,0.05,0.13,0.09,0.2,0.13
    c0.16,0.46,0.47,0.84,0.9,1.09c0.3,0.17,0.64,0.26,0.98,0.26c0.49,0,0.96-0.18,1.32-0.51c0.12-0.11,0.2-0.25,0.23-0.41
    c0.06-0.29,0.05-0.59-0.03-0.88c-0.14-0.52-0.47-0.95-0.94-1.22c-0.3-0.17-0.64-0.26-0.98-0.26c-0.24,0-0.48,0.04-0.7,0.13
    c-0.21-0.25-0.73-0.98-0.73-1.82c0-1.46,1.19-2.65,2.65-2.65c0.51,0,0.98,0.23,1.52,0.56c1,0.64,1.1,1.19,1.29,2.28
    c0.12,0.71,0.28,1.6,0.74,2.64c0.52,1.18,1.18,2,1.77,2.72c0.76,0.94,1.26,1.56,1.26,2.66v2.83c0,0.52,0.42,0.94,0.94,0.94
    s0.94-0.42,0.94-0.94v-2.83c0-1.1,0.5-1.72,1.27-2.66c0.58-0.72,1.24-1.53,1.76-2.72c0.46-1.04,0.61-1.93,0.74-2.64
    c0.19-1.09,0.28-1.64,1.28-2.28c0.55-0.34,1.01-0.57,1.53-0.57c1.46,0,2.65,1.19,2.65,2.65c0,0.69-0.26,1.33-0.73,1.83
    c-0.23-0.09-0.48-0.14-0.73-0.14c-0.34,0-0.68,0.09-0.98,0.26c-0.47,0.27-0.8,0.7-0.94,1.22c-0.08,0.29-0.09,0.59-0.03,0.88
    c0.03,0.16,0.11,0.3,0.23,0.41c0.36,0.33,0.83,0.51,1.32,0.51c0.34,0,0.68-0.09,0.98-0.26c0.43-0.24,0.74-0.62,0.9-1.07
    c0.09-0.04,0.17-0.08,0.24-0.14C23.41,10.93,24,9.66,24,8.31C24,5.81,21.97,3.77,19.5,3.77z"/>
</g>

</svg>