<svg xmlns="http://www.w3.org/2000/svg" width="95" height="75" viewBox="0 0 95 75" fill="none">
<path d="M48.6689 28.1943C42.1709 28.1943 36.8826 32.3693 36.8826 37.4993C36.8826 42.6305 42.1709 46.8056 48.6689 46.8056C55.167 46.8056 60.4553 42.6307 60.4553 37.4993C60.4553 32.3693 55.167 28.1943 48.6689 28.1943Z" fill="white"/>
<path d="M89.3412 22.4263C89.8448 19.9075 89.2414 17.73 87.5473 15.9551H87.5457C85.9052 14.2375 83.3688 13.2013 80.0011 12.86C79.8174 12.1762 79.4644 11.5213 78.9418 10.9312C76.8233 8.54751 72.6481 7.96992 69.6302 9.63618C67.7207 10.6912 66.731 12.3962 66.7896 14.11C65.7415 14.3449 64.6807 14.6024 63.5992 14.8925C60.238 5.79243 54.8514 0 48.6686 0C42.519 0 37.1547 5.73882 33.7899 14.7625C23.0501 11.7838 13.821 11.5438 9.77238 15.9763C8.20655 17.6925 7.82655 19.9475 8.6244 22.6825C7.885 23.0476 7.22316 23.5312 6.69268 24.1301C4.57893 26.5138 5.31685 29.8113 8.33625 31.4801C9.47143 32.1076 10.7951 32.4363 12.1552 32.4363C12.5446 32.4363 12.9373 32.4101 13.3301 32.355C13.783 32.2913 14.2183 32.1913 14.6346 32.0613C16.2797 33.86 18.1814 35.6788 20.3157 37.4963C13.6499 43.1464 9.25452 48.7226 8.34256 53.1201C7.85012 55.4925 8.33458 57.4825 9.78333 59.0338C11.8115 61.2076 15.4785 62.4838 20.6497 62.4838C24.3135 62.4838 28.739 61.83 33.8579 60.4113C37.2274 69.3337 42.5583 75 48.6686 75C51.3586 75 53.9079 73.9525 56.2638 71.895C57.0664 72.1649 57.9469 72.3138 58.8731 72.3138C62.5592 72.3138 65.558 69.9475 65.558 67.0376C65.558 65.1987 64.3579 63.5801 62.5466 62.6351C62.9123 61.8038 63.2591 60.9476 63.5853 60.0601C69.1854 61.5989 74.3266 62.4576 78.4559 62.4576C79.8366 62.4576 81.1079 62.3613 82.2416 62.1664C84.8272 61.7227 86.6654 60.7863 87.7104 59.3826C91.8555 53.8088 88.0953 46.0526 77.5675 37.4638C84.303 31.96 88.4782 26.73 89.3412 22.4263ZM67.6114 16.5038C67.727 16.6712 67.8521 16.8325 67.9883 16.9863C69.0112 18.1414 70.5453 18.9126 72.3028 19.1575C72.6954 19.2113 73.0882 19.2375 73.4777 19.2375C73.5063 19.2375 73.5346 19.2337 73.5616 19.2325C73.6517 19.2325 73.7389 19.2212 73.8276 19.2176C74.1364 19.2038 74.442 19.1763 74.7444 19.1301C74.8695 19.1114 74.993 19.0863 75.1181 19.0614C75.3888 19.0065 75.6549 18.9365 75.9161 18.8552C76.0301 18.819 76.1442 18.7876 76.2566 18.7465C76.608 18.6177 76.9517 18.4702 77.2762 18.2915C77.2825 18.2877 77.2905 18.2865 77.2968 18.2827C77.6356 18.0965 77.9429 17.884 78.2262 17.654C78.3719 17.5377 78.4923 17.4064 78.622 17.2815C78.7424 17.1652 78.8674 17.0527 78.9734 16.9291C79.1127 16.7678 79.2283 16.5979 79.3439 16.4253C79.4135 16.3191 79.4864 16.2166 79.5465 16.1079C79.651 15.9242 79.7349 15.7367 79.8126 15.5429C79.8347 15.4841 79.8727 15.4304 79.8933 15.3703C82.2366 15.6466 83.9561 16.3478 85.017 17.4604C86.1934 18.6904 86.5845 20.1866 86.2125 22.0367C85.454 25.8179 81.5543 30.6079 75.3207 35.7016C72.8253 33.8054 70.0133 31.8754 66.8943 29.9228C66.4445 25.3365 65.5897 21.0828 64.4117 17.2991C65.4945 17.0063 66.5633 16.7388 67.6114 16.5038ZM67.1476 33.3174C69.2802 34.7212 71.2563 36.115 73.0533 37.4862C71.2404 38.8674 69.2596 40.2637 67.1396 41.6637C67.2125 40.2886 67.26 38.9024 67.26 37.4999C67.26 36.0838 67.2188 34.69 67.1476 33.3174ZM63.4917 27.8537C62.1523 27.0637 60.7668 26.2724 59.3323 25.4788C56.9082 24.1387 54.4209 22.8625 51.9112 21.6687C55.157 20.3049 58.3617 19.1225 61.465 18.1625C62.3421 21.065 63.0373 24.3113 63.4917 27.8537ZM48.6686 2.50005C53.0655 2.50005 57.6461 7.40376 60.6607 15.7263C56.7877 16.91 52.7645 18.42 48.7049 20.1987C44.6674 18.4087 40.6173 16.8574 36.7143 15.63C39.7306 7.36626 44.2889 2.50005 48.6686 2.50005ZM35.9132 18.0363C38.9674 19.0125 42.1895 20.2263 45.5033 21.6463C42.997 22.8289 40.4889 24.1075 38.0078 25.4788C36.5796 26.2676 35.199 27.0788 33.8421 27.8975C34.303 24.2862 35.0138 20.9837 35.9132 18.0363ZM17.1982 30.63C17.3596 30.4863 17.5101 30.3375 17.6463 30.1838C17.9058 29.8901 18.1244 29.58 18.3018 29.2588C18.3318 29.2039 18.3445 29.145 18.3714 29.0887C18.5076 28.8199 18.6278 28.5475 18.7055 28.2662C18.7104 28.2461 18.7087 28.2249 18.7135 28.2037C18.8781 27.5648 18.9004 26.9024 18.753 26.2399C18.6026 25.5687 18.2907 24.9412 17.8489 24.3773C17.8409 24.3686 17.8377 24.3586 17.8299 24.3498C17.6288 24.0973 17.3898 23.8648 17.1364 23.6411C17.0952 23.6049 17.0651 23.5623 17.0224 23.5274C16.7154 23.2724 16.3764 23.0386 16.0043 22.8324C15.6592 22.6424 15.2935 22.4849 14.915 22.3523C14.7424 22.2911 14.5667 22.2523 14.3908 22.2037C14.1897 22.1474 13.9902 22.0898 13.7828 22.0499C13.5579 22.0061 13.3332 21.9798 13.1067 21.9548C12.9387 21.936 12.7725 21.9186 12.6031 21.9098C12.3704 21.8985 12.1392 21.8985 11.9064 21.906C11.8177 21.9085 11.7306 21.8985 11.6434 21.9035C11.1336 20.0048 11.3679 18.506 12.3417 17.4385C15.2471 14.2535 23.0371 14.371 32.9724 17.1586C31.7612 21.0062 30.8872 25.346 30.436 30.0299C27.5797 31.8861 24.9243 33.7862 22.5146 35.6949C20.5326 34 18.7324 32.3038 17.1982 30.63ZM30.1846 41.545C28.2291 40.2063 26.3909 38.8488 24.6746 37.4813C26.3814 36.1351 28.2291 34.7887 30.1846 33.455C30.1165 34.7812 30.0801 36.1299 30.0801 37.5C30.0801 38.8688 30.1165 40.2174 30.1846 41.545ZM12.3311 57.55C11.408 56.5626 11.1182 55.2075 11.4666 53.5238C12.2867 49.5662 16.3179 44.4901 22.4818 39.2713C24.9138 41.205 27.566 43.1213 30.438 44.9837C30.8941 49.7087 31.7807 54.085 33.0093 57.9574C23.0707 60.7975 15.4058 60.8438 12.3311 57.55ZM33.8421 47.1088C35.199 47.9263 36.5828 48.7337 38.0078 49.5212C40.4936 50.895 43.0365 52.1774 45.5935 53.3675C42.2336 54.8325 39.0005 56.0675 35.9447 57.0637C35.0313 54.0938 34.3093 50.7587 33.8421 47.1088ZM59.5919 61.7925C59.4811 61.7826 59.3765 61.7963 59.2674 61.79C59.1344 61.7837 59.0078 61.7588 58.8731 61.7588C58.7638 61.7588 58.661 61.7801 58.5532 61.7851C58.2699 61.7925 57.9927 61.8138 57.7203 61.8513C57.5763 61.8712 57.437 61.8962 57.2976 61.9225C56.9889 61.9812 56.6896 62.0512 56.3983 62.1437C56.2844 62.1798 56.1765 62.2225 56.0658 62.2636C55.7824 62.3687 55.5069 62.4798 55.2471 62.6149C55.1236 62.6774 55.0128 62.75 54.8957 62.8198C54.6708 62.9536 54.4493 63.0873 54.2482 63.2411C54.1057 63.3498 53.9838 63.4699 53.8555 63.5874C53.7019 63.7274 53.5436 63.8612 53.4091 64.0137C53.2635 64.1774 53.1479 64.355 53.026 64.5312C52.9373 64.6613 52.8343 64.7837 52.7599 64.9187C52.6348 65.1423 52.5493 65.3799 52.4654 65.6174C52.4259 65.7261 52.3688 65.8274 52.3387 65.9375C52.2437 66.2924 52.1882 66.6599 52.1882 67.0374C52.1882 67.3686 52.2357 67.6961 52.3133 68.0162C52.3482 68.1599 52.4066 68.2937 52.4558 68.4337C52.5159 68.6011 52.5714 68.7687 52.6521 68.93C52.7313 69.0924 52.8295 69.2449 52.9276 69.4C53.01 69.5263 53.0907 69.6513 53.184 69.7726C53.306 69.93 53.439 70.0775 53.5798 70.2239C53.6321 70.2776 53.67 70.3375 53.7255 70.3888C52.0567 71.7901 50.361 72.5001 48.6684 72.5001C44.3205 72.5001 39.7954 67.7001 36.7808 59.5452C40.4732 58.3689 44.5012 56.8027 48.83 54.8265C52.8248 56.5503 56.8052 58.0165 60.6274 59.1977C60.3029 60.0913 59.9576 60.9576 59.5919 61.7925ZM61.427 56.77C58.4282 55.8363 55.2583 54.6888 51.9902 53.3338C54.3573 52.1813 56.7972 50.9225 59.3321 49.5212C60.7588 48.7324 62.1267 47.9399 63.4678 47.1463C63.0199 50.5513 62.3326 53.7874 61.427 56.77ZM63.8257 43.7826C61.8244 45.0187 59.7233 46.2526 57.5162 47.4725C54.5443 49.1162 51.6167 50.5925 48.7539 51.9325C45.8184 50.6112 42.8276 49.1338 39.8224 47.4725C37.6248 46.2587 35.5174 45.0013 33.4938 43.7212C33.3355 41.7237 33.2468 39.65 33.2468 37.5C33.2468 35.3487 33.3355 33.2763 33.4938 31.2788C35.5142 30.0013 37.6215 28.7437 39.8224 27.5263C42.7643 25.9 45.7393 24.4213 48.7018 23.0738C51.6041 24.4125 54.5523 25.8876 57.5162 27.5263C59.7439 28.7575 61.8482 29.9889 63.84 31.2151C64.0014 33.2326 64.0933 35.3263 64.0933 37.5001C64.0933 39.6312 63.9968 41.7287 63.8257 43.7826ZM84.9792 58.1162C84.4012 58.8937 83.2534 59.435 81.5703 59.7237C77.9366 60.3524 71.8139 59.6849 64.4117 57.6475C65.6055 53.7987 66.443 49.545 66.8865 45.0574C69.966 43.1174 72.7782 41.1775 75.2909 39.2599C84.5532 46.8637 88.2725 53.6887 84.9792 58.1162Z" fill="white"/>
</svg>