<svg xmlns="http://www.w3.org/2000/svg" width="27" height="25" viewBox="0 0 27 25" fill="none">
  <g clip-path="url(#clip0_594_1571)">
    <path d="M10.3592 12.5145L4.37381 10.8996C4.15577 10.8426 3.92532 10.9602 3.86244 11.1684C3.79996 11.3754 3.92698 11.5918 4.14708 11.6512L10.1325 13.266C10.1702 13.2758 10.2082 13.2809 10.2459 13.2809C10.4258 13.2809 10.5913 13.1691 10.6435 12.9973C10.7063 12.7902 10.5789 12.5738 10.3592 12.5145Z" fill="white"/>
    <path d="M10.3592 15.2489L4.37381 13.6345C4.15577 13.5774 3.92532 13.695 3.86244 13.9032C3.79996 14.1106 3.92698 14.3267 4.14708 14.386L10.1325 16.0005C10.1702 16.0103 10.2082 16.0153 10.2459 16.0153C10.4258 16.0153 10.5913 15.9036 10.6435 15.7317C10.7063 15.5243 10.5789 15.3083 10.3592 15.2489Z" fill="white"/>
    <path d="M10.3592 9.78008L4.37381 8.16524C4.15577 8.10821 3.92532 8.22579 3.86244 8.43399C3.79996 8.64102 3.92698 8.85743 4.14708 8.9168L10.1325 10.5316C10.1702 10.5414 10.2082 10.5465 10.2459 10.5465C10.4258 10.5465 10.5913 10.4348 10.6435 10.2629C10.7063 10.0559 10.5789 9.83946 10.3592 9.78008Z" fill="white"/>
    <path d="M10.3592 7.04571L4.37381 5.43086C4.15577 5.37383 3.92532 5.49141 3.86244 5.69961C3.79996 5.90664 3.92698 6.12305 4.14708 6.18243L10.1325 7.79727C10.1702 7.80704 10.2082 7.81211 10.2459 7.81211C10.4258 7.81211 10.5913 7.70039 10.6435 7.52852C10.7063 7.32149 10.5789 7.10508 10.3592 7.04571Z" fill="white"/>
    <path d="M16.9603 13.2659C16.9983 13.2659 17.0364 13.2608 17.074 13.2511L23.0595 11.6362C23.2792 11.5769 23.4066 11.3604 23.3441 11.1534C23.2812 10.9456 23.0512 10.8284 22.8327 10.8847L16.8469 12.4995C16.6272 12.5589 16.4998 12.7753 16.5623 12.9823C16.6148 13.1542 16.7803 13.2659 16.9603 13.2659Z" fill="white"/>
    <path d="M22.9577 13.6342L16.9723 15.2486C16.7526 15.308 16.6252 15.524 16.6876 15.7314C16.7402 15.9033 16.9057 16.015 17.0856 16.015C17.1237 16.015 17.1618 16.01 17.1994 16.0002L23.1848 14.3857C23.4045 14.3264 23.532 14.1103 23.4695 13.9029C23.4062 13.6951 23.1761 13.5779 22.9577 13.6342Z" fill="white"/>
    <path d="M22.9577 8.16521L16.9723 9.78005C16.7526 9.83943 16.6252 10.0558 16.6876 10.2629C16.7402 10.4347 16.9057 10.5465 17.0856 10.5465C17.1237 10.5465 17.1618 10.5414 17.1994 10.5316L23.1848 8.91677C23.4045 8.8574 23.532 8.64099 23.4695 8.43396C23.4062 8.22615 23.1761 8.10818 22.9577 8.16521Z" fill="white"/>
    <path d="M22.9577 5.43056L16.9723 7.04541C16.7526 7.10478 16.6252 7.32119 16.6876 7.52822C16.7402 7.70009 16.9057 7.81181 17.0856 7.81181C17.1237 7.81181 17.1618 7.80673 17.1994 7.79697L23.1848 6.18212C23.4045 6.12275 23.532 5.90634 23.4695 5.69931C23.4062 5.4915 23.1761 5.37431 22.9577 5.43056Z" fill="white"/>
    <path d="M26.582 0.161328C26.4355 0.0554688 26.2576 0 26.0768 0C26.0056 0 25.9341 0.00859375 25.8641 0.0257812L13.6657 3.09727L1.46735 0.0257812C1.39702 0.00820312 1.32544 0 1.25428 0C1.07348 0 0.89599 0.0554688 0.74953 0.161328C0.545975 0.309375 0.426407 0.538281 0.426407 0.780859V20.3117C0.426407 20.6656 0.678368 20.9754 1.04038 21.0668L11.7448 23.7617C12.0477 24.4859 12.7915 24.9996 13.6657 24.9996C14.54 24.9996 15.2838 24.4859 15.5867 23.7617L26.2911 21.0668C26.6531 20.9754 26.9051 20.6656 26.9051 20.3117V0.780859C26.9051 0.538281 26.7855 0.309375 26.582 0.161328ZM13.6657 21.0934C13.7373 21.0934 13.8093 21.0848 13.8792 21.0672L26.0776 17.9957V18.759L13.6657 21.8609L1.25387 18.759V17.9957L13.4523 21.0668C13.5222 21.0848 13.5942 21.0934 13.6657 21.0934ZM1.25304 0.78125C1.25304 0.78125 1.25345 0.78125 1.25428 0.78125L13.252 3.80156V20.2078L1.25387 17.1871L1.25304 0.78125ZM14.8982 23.1266C14.8656 23.573 14.5735 23.9512 14.1585 24.1211L13.8788 24.1918C13.8089 24.2094 13.7369 24.218 13.6653 24.218C13.5938 24.218 13.5218 24.2094 13.4518 24.1918L13.1722 24.1211C12.7572 23.9512 12.4651 23.573 12.4324 23.1266L1.25387 20.3117V19.5672L13.5598 22.643C13.5946 22.6516 13.6302 22.6559 13.6657 22.6559C13.7013 22.6559 13.7369 22.6516 13.7717 22.643L26.0776 19.5672V20.3117L14.8982 23.1266ZM14.0795 20.2078V3.80156L26.0776 0.780859V17.1871L14.0795 20.2078Z" fill="white"/>
  </g>
  <defs>
    <clipPath id="clip0_594_1571">
      <rect width="26.4787" height="25" fill="white" transform="translate(0.426407)"/>
    </clipPath>
  </defs>
</svg>