<svg xmlns="http://www.w3.org/2000/svg" width="40" height="40" viewBox="0 0 40 40" fill="none">
  <path d="M33.163 26.6665H13.1629C11.613 26.6665 10.838 26.6665 10.2022 26.8368C8.47669 27.2992 7.12896 28.647 6.66663 30.3723" stroke="white" stroke-width="4"/>
  <path d="M13.3333 11.6665H26.6666" stroke="white" stroke-width="4" stroke-linecap="round"/>
  <path d="M13.3333 17.5H21.6666" stroke="white" stroke-width="4" stroke-linecap="round"/>
  <path d="M16.6666 36.6666C11.9526 36.6666 9.59556 36.6666 8.13109 35.2021C6.66663 33.7376 6.66663 31.3806 6.66663 26.6666V13.3333C6.66663 8.6192 6.66663 6.26219 8.13109 4.79772C9.59556 3.33325 11.9526 3.33325 16.6666 3.33325H23.3333C28.0473 3.33325 30.4043 3.33325 31.8688 4.79772C33.3333 6.26219 33.3333 8.6192 33.3333 13.3333M23.3333 36.6666C28.0473 36.6666 30.4043 36.6666 31.8688 35.2021C33.3333 33.7376 33.3333 31.3806 33.3333 26.6666V19.9999" stroke="white" stroke-width="4" stroke-linecap="round"/>
</svg>