<svg xmlns="http://www.w3.org/2000/svg" width="52" height="54" viewBox="0 0 52 54" fill="none">
  <path d="M38.4591 35.8646H34.2424M34.2424 35.8646H30.0258M34.2424 35.8646V31.4348M34.2424 35.8646V40.2944" stroke="white" stroke-width="4" stroke-linecap="round"/>
  <path d="M15.2675 9.28574V5.96338" stroke="white" stroke-width="4" stroke-linecap="round"/>
  <path d="M36.3507 9.28574V5.96338" stroke="white" stroke-width="4" stroke-linecap="round"/>
  <path d="M45.8382 20.3604H35.5601H23.1737M4.72583 20.3604H12.8956" stroke="white" stroke-width="4" stroke-linecap="round"/>
  <path d="M30.0257 49.154H21.5924C13.6414 49.154 9.66595 49.154 7.19588 46.559C4.72583 43.9642 4.72583 39.7876 4.72583 31.4347V27.0049C4.72583 18.652 4.72583 14.4755 7.19588 11.8806C9.66595 9.28564 13.6414 9.28564 21.5924 9.28564H30.0257C37.9766 9.28564 41.9523 9.28564 44.4222 11.8806C46.8923 14.4755 46.8923 18.652 46.8923 27.0049V31.4347C46.8923 39.7876 46.8923 43.9642 44.4222 46.559C43.045 48.0058 41.2001 48.6459 38.459 48.9292" stroke="white" stroke-width="4" stroke-linecap="round"/>
</svg>