<svg xmlns="http://www.w3.org/2000/svg" width="27" height="25" viewBox="0 0 27 25" fill="none">
  <g clip-path="url(#clip0_594_1585)">
    <path fill-rule="evenodd" clip-rule="evenodd" d="M13.2393 18.75C10.498 18.75 8.27459 16.6508 8.27459 14.0625C8.27459 11.4742 10.498 9.375 13.2393 9.375C15.9807 9.375 18.2041 11.4742 18.2041 14.0625C18.2041 16.6508 15.9807 18.75 13.2393 18.75ZM13.2393 7.8125C9.58363 7.8125 6.61967 10.6109 6.61967 14.0625C6.61967 17.5141 9.58363 20.3125 13.2393 20.3125C16.8951 20.3125 19.859 17.5141 19.859 14.0625C19.859 10.6109 16.8951 7.8125 13.2393 7.8125ZM24.8238 20.3125C24.8238 21.175 24.0824 21.875 23.1688 21.875H3.30983C2.39632 21.875 1.65492 21.175 1.65492 20.3125V7.8125C1.65492 6.95 2.39632 6.25 3.30983 6.25H6.61967L7.44713 4.6875C8.03214 3.77891 8.18853 3.125 9.10205 3.125H17.3766C18.2901 3.125 18.4465 3.77891 19.0316 4.6875L19.859 6.25H23.1688C24.0824 6.25 24.8238 6.95 24.8238 7.8125V20.3125ZM23.1688 4.6875H20.6865L19.859 3.125C19.3716 2.21641 19.1176 1.5625 18.2041 1.5625H8.27459C7.36107 1.5625 7.05822 2.30781 6.61967 3.125L5.79221 4.6875H3.30983C1.48198 4.6875 0 6.08672 0 7.8125V20.3125C0 22.0383 1.48198 23.4375 3.30983 23.4375H23.1688C24.9967 23.4375 26.4787 22.0383 26.4787 20.3125V7.8125C26.4787 6.08672 24.9967 4.6875 23.1688 4.6875Z" fill="white"/>
  </g>
  <defs>
    <clipPath id="clip0_594_1585">
      <rect width="26.4787" height="25" fill="white"/>
    </clipPath>
  </defs>
</svg>