<svg xmlns="http://www.w3.org/2000/svg" width="40" height="40" viewBox="0 0 40 40" fill="none">
  <path d="M3.33337 21.0166H31.6667" stroke="white" stroke-width="4" stroke-miterlimit="10" stroke-linecap="round" stroke-linejoin="round"/>
  <path d="M31.6667 17.1329V29.0496C31.6167 33.7996 30.3167 34.9996 25.3667 34.9996H9.63342C4.60009 34.9996 3.33337 33.7496 3.33337 28.7829V17.1329C3.33337 12.6329 4.38337 11.1829 8.33337 10.9496C8.73337 10.9329 9.16676 10.9163 9.63342 10.9163H25.3667C30.4 10.9163 31.6667 12.1663 31.6667 17.1329Z" stroke="white" stroke-width="4" stroke-linecap="round" stroke-linejoin="round"/>
  <path opacity="0.4" d="M36.6667 11.2167V22.8667C36.6667 27.3667 35.6167 28.8167 31.6667 29.05V17.1333C31.6667 12.1667 30.4 10.9167 25.3667 10.9167H9.63342C9.16676 10.9167 8.73337 10.9333 8.33337 10.95C8.38337 6.2 9.68342 5 14.6334 5H30.3667C35.4 5 36.6667 6.25 36.6667 11.2167Z" stroke="white" stroke-width="4" stroke-linecap="round" stroke-linejoin="round"/>
  <path opacity="0.4" d="M8.75 29.6836H11.6166" stroke="white" stroke-width="4" stroke-miterlimit="10" stroke-linecap="round" stroke-linejoin="round"/>
  <path opacity="0.4" d="M15.1824 29.6836H20.9157" stroke="white" stroke-width="4" stroke-miterlimit="10" stroke-linecap="round" stroke-linejoin="round"/>
</svg>