<svg xmlns="http://www.w3.org/2000/svg" width="42" height="36" viewBox="0 0 42 36" fill="none">
  <path d="M25.8465 12.0859C30.8983 6.6586 23.1434 7.39947 22.0179 6.90858C21.6224 6.73632 21.2333 5.07325 20.3532 5.45728C18.9978 6.04823 19.1129 9.12438 18.9659 10.1506C18.8861 10.7091 17.9913 11.5088 17.6972 12.0859C17.2277 13.0068 16.7119 14.1022 15.8495 15.2461C14.9872 16.3901 13.1851 17.2769 12.2831 18.1512C8.44413 21.8701 10.09 26.242 14.3048 29.0692C18.5678 31.9287 36.3725 30.8614 31.3401 24.2791" stroke="white" stroke-width="2.56" stroke-linecap="round" stroke-linejoin="round"/>
  <path d="M23.8537 14.6055C25.1048 18.5964 23.3089 22.7642 23.3089 26.6721C23.3089 27.1219 24.3329 26.6879 24.8346 26.7682" stroke="white" stroke-width="2.56" stroke-linecap="round" stroke-linejoin="round"/>
  <path d="M17.3235 18.7988C18.3306 18.9281 19.2497 19.5724 19.9625 20.1747C23.5108 23.173 18.978 25.188 18.7269 26.2479C18.6702 26.4877 19.84 26.6528 20.0749 26.6747" stroke="white" stroke-width="2.56" stroke-linecap="round" stroke-linejoin="round"/>
  <path d="M22.3701 5.66913C23.0542 5.10983 23.1847 6.08878 23.3089 6.62707" stroke="white" stroke-width="2.56" stroke-linecap="round" stroke-linejoin="round"/>
</svg>