<svg xmlns="http://www.w3.org/2000/svg" width="32" height="31" viewBox="0 0 32 31" fill="none">
  <path d="M9.33326 5.30859C8.18687 5.59533 7.17157 6.24346 6.44735 7.15085C5.72313 8.05824 5.33118 9.17329 5.33326 10.3203V23.2369C5.33326 24.6073 5.89523 25.9213 6.89543 26.8903C7.89562 27.8592 9.2521 28.4036 10.6666 28.4036H21.3332C22.7478 28.4036 24.1043 27.8592 25.1044 26.8903C26.1047 25.9213 26.6666 24.6073 26.6666 23.2369V10.3203C26.6656 9.1755 26.2724 8.06333 25.5484 7.15858C24.8244 6.25382 23.8107 5.6077 22.6666 5.32152" stroke="#EFEFEF" stroke-width="4" stroke-linecap="round" stroke-linejoin="round"/>
  <path d="M11.9999 7.73698C11.2927 7.73698 10.6144 7.46477 10.1143 6.98029C9.61424 6.49583 9.33325 5.83878 9.33325 5.15365C9.33325 4.46851 9.61424 3.81146 10.1143 3.327C10.6144 2.84252 11.2927 2.57031 11.9999 2.57031H19.9999C20.7071 2.57031 21.3855 2.84252 21.8855 3.327C22.3857 3.81146 22.6666 4.46851 22.6666 5.15365C22.6666 5.83878 22.3857 6.49583 21.8855 6.98029C21.3855 7.46477 20.7071 7.73698 19.9999 7.73698H11.9999Z" stroke="#EFEFEF" stroke-width="4" stroke-linecap="round" stroke-linejoin="round"/>
</svg>