<svg xmlns="http://www.w3.org/2000/svg" width="35" height="31" viewBox="0 0 35 31" fill="none">
  <path fill-rule="evenodd" clip-rule="evenodd" d="M5.98577 27.1252H22.9321C23.7121 27.1252 24.3443 26.5469 24.3443 25.8335V5.16683C24.3443 4.45346 23.7121 3.87516 22.9321 3.87516H5.98577C5.20583 3.87516 4.57357 4.45346 4.57357 5.16683V25.8335C4.57357 26.5469 5.20583 27.1252 5.98577 27.1252ZM22.9321 28.4168H5.98577C4.4259 28.4168 3.16138 27.2602 3.16138 25.8335V5.16683C3.16138 3.74009 4.4259 2.5835 5.98577 2.5835H22.9321C24.492 2.5835 25.7565 3.74009 25.7565 5.16683V25.8335C25.7565 27.2602 24.492 28.4168 22.9321 28.4168Z" fill="white"/>
  <path fill-rule="evenodd" clip-rule="evenodd" d="M13.0468 8.39583C13.0468 8.03914 13.3629 7.75 13.7529 7.75H22.226C22.616 7.75 22.9321 8.03914 22.9321 8.39583C22.9321 8.75253 22.616 9.04167 22.226 9.04167H13.7529C13.3629 9.04167 13.0468 8.75253 13.0468 8.39583Z" fill="white"/>
  <path fill-rule="evenodd" clip-rule="evenodd" d="M13.0468 10.9793C13.0468 10.6226 13.3629 10.3335 13.7529 10.3335H22.226C22.616 10.3335 22.9321 10.6226 22.9321 10.9793C22.9321 11.336 22.616 11.6252 22.226 11.6252H13.7529C13.3629 11.6252 13.0468 11.336 13.0468 10.9793Z" fill="white"/>
  <path fill-rule="evenodd" clip-rule="evenodd" d="M13.0468 16.1458C13.0468 15.7891 13.3629 15.5 13.7529 15.5H22.226C22.616 15.5 22.9321 15.7891 22.9321 16.1458C22.9321 16.5025 22.616 16.7917 22.226 16.7917H13.7529C13.3629 16.7917 13.0468 16.5025 13.0468 16.1458Z" fill="white"/>
  <path fill-rule="evenodd" clip-rule="evenodd" d="M13.0468 18.7293C13.0468 18.3726 13.3629 18.0835 13.7529 18.0835H22.226C22.616 18.0835 22.9321 18.3726 22.9321 18.7293C22.9321 19.086 22.616 19.3752 22.226 19.3752H13.7529C13.3629 19.3752 13.0468 19.086 13.0468 18.7293Z" fill="white"/>
  <path fill-rule="evenodd" clip-rule="evenodd" d="M7.39798 16.7917V18.7292H9.51627V16.7917H7.39798ZM6.69188 15.5H10.2224C10.6123 15.5 10.9285 15.7891 10.9285 16.1458V19.375C10.9285 19.7317 10.6123 20.0208 10.2224 20.0208H6.69188C6.30191 20.0208 5.98578 19.7317 5.98578 19.375V16.1458C5.98578 15.7891 6.30191 15.5 6.69188 15.5Z" fill="white"/>
  <path fill-rule="evenodd" clip-rule="evenodd" d="M11.4277 7.93915C11.7035 8.19135 11.7035 8.60029 11.4277 8.85249L8.10407 11.8925L6.19259 10.1442C5.91684 9.89195 5.91684 9.48301 6.19259 9.23082C6.46834 8.97862 6.91541 8.97862 7.19117 9.23082L8.10407 10.0658L10.4292 7.93915C10.7049 7.68695 11.152 7.68695 11.4277 7.93915Z" fill="white"/>
  <path fill-rule="evenodd" clip-rule="evenodd" d="M29.9931 15.5002H28.5809V25.4029L29.287 26.2641L29.9931 25.4029V15.5002ZM31.4053 25.8335L29.287 28.4168L27.1687 25.8335V14.2085H31.4053V25.8335Z" fill="white"/>
  <path fill-rule="evenodd" clip-rule="evenodd" d="M29.9931 10.9792H28.5809V12.2708H29.9931V10.9792ZM28.5809 9.6875H29.9931C30.773 9.6875 31.4053 10.2658 31.4053 10.9792V13.5625H27.1687V10.9792C27.1687 10.2658 27.8009 9.6875 28.5809 9.6875Z" fill="white"/>
</svg>