<svg xmlns="http://www.w3.org/2000/svg" width="45" height="45" viewBox="0 0 45 45" fill="none">
  <path fill-rule="evenodd" clip-rule="evenodd" d="M21.7204 5.79475C22.2156 5.56842 22.7844 5.56842 23.2796 5.79475L42.0296 14.3662C42.6969 14.6713 43.125 15.3376 43.125 16.0714C43.125 16.8052 42.6969 17.4716 42.0296 17.7767L37.5 19.8474V30.8379C37.5 31.215 37.4053 31.6279 37.1664 32.0115C36.5464 33.0079 32.1986 39.375 22.5 39.375C12.8014 39.375 8.45355 33.0079 7.83347 32.0115C7.59469 31.6279 7.5 31.215 7.5 30.8379V19.8474L2.97045 17.7767C2.30306 17.4716 1.875 16.8052 1.875 16.0714C1.875 15.3376 2.30306 14.6713 2.97045 14.3662L21.7204 5.79475ZM11.25 21.5616V30.3739C12.1685 31.6479 15.5879 35.625 22.5 35.625C29.4122 35.625 32.8314 31.6479 33.75 30.3739V21.5616L23.2796 26.3481C22.7844 26.5744 22.2156 26.5744 21.7204 26.3481L11.25 21.5616ZM8.25983 16.0714L10.1546 16.9376L22.5 22.5812L34.8454 16.9376L36.7403 16.0714L22.5 9.56164L8.25983 16.0714ZM44.0625 21.5625C44.0625 23.1158 42.8032 24.375 41.25 24.375C39.6968 24.375 38.4375 23.1158 38.4375 21.5625C38.4375 20.0093 39.6968 18.75 41.25 18.75C42.8032 18.75 44.0625 20.0093 44.0625 21.5625ZM43.125 27.1875C43.125 26.1519 42.2856 25.3125 41.25 25.3125C40.2144 25.3125 39.375 26.1519 39.375 27.1875V37.5C39.375 38.5356 40.2144 39.375 41.25 39.375C42.2856 39.375 43.125 38.5356 43.125 37.5V27.1875Z" fill="white"/>
</svg>