<svg version="1.1" viewBox="0.0 0.0 600.0 371.0" fill="none" stroke="none" stroke-linecap="square" stroke-miterlimit="10" width="600" height="371" xmlns:xlink="http://www.w3.org/1999/xlink" xmlns="http://www.w3.org/2000/svg"><path fill="#ffffff" fill-opacity="0.0" d="M0 0L600.0 0L600.0 371.0L0 371.0L0 0Z" fill-rule="nonzero"/><path fill="#8fe1ff" d="M300.0 56.916668C373.4855 56.916668 435.80453 110.91643 446.2626 183.65395L329.25253 200.47746C327.16092 185.92995 314.6971 175.13 300.0 175.13Z" fill-rule="nonzero"/><path fill="#c0eeff" d="M446.2626 183.65395C452.36215 226.07726 439.74164 269.05884 411.6746 301.44992L322.33493 224.03665C327.94833 217.55843 330.47244 208.96211 329.25253 200.47746Z" fill-rule="nonzero"/><path fill="#0078b8" d="M165.58672 143.29884C189.61887 90.67577 242.14906 56.916668 300.0 56.916668L300.0 175.13C288.4298 175.13 277.92377 181.88182 273.11734 192.40643Z" fill-rule="nonzero"/><path fill="#00a3fa" d="M411.6746 301.44992C363.55182 356.98654 281.93124 368.72183 220.11131 328.99255C158.29138 289.2633 135.05974 210.1436 165.58672 143.29884L273.11734 192.40643C267.01193 205.77539 271.65826 221.59933 284.02225 229.54518C296.38626 237.49103 312.71036 235.14398 322.33493 224.03665Z" fill-rule="nonzero"/><path stroke="#005975" stroke-width="1.0" stroke-linejoin="round" stroke-linecap="round" d="M329.25253 200.47746C327.16092 185.92995 314.6971 175.13 300.0 175.13L300.0 56.916668C373.4855 56.916668 435.80453 110.91643 446.2626 183.65395" fill-rule="nonzero"/><path stroke="#005975" stroke-width="1.0" stroke-linejoin="round" stroke-linecap="round" d="M322.33493 224.03665C327.94833 217.55843 330.47244 208.96211 329.25253 200.47746L446.2626 183.65395C452.36215 226.07726 439.74164 269.05884 411.6746 301.44992" fill-rule="nonzero"/><path stroke="#005975" stroke-width="1.0" stroke-linejoin="round" stroke-linecap="round" d="M273.11734 192.40643C267.01193 205.77539 271.65826 221.59933 284.02225 229.54518C296.38626 237.49103 312.71036 235.14398 322.33493 224.03665L411.6746 301.44992C363.55182 356.98654 281.93124 368.72183 220.11131 328.99255C158.29138 289.2633 135.05974 210.1436 165.58672 143.29884" fill-rule="nonzero"/><path stroke="#005975" stroke-width="1.0" stroke-linejoin="round" stroke-linecap="round" d="M300.0 175.13C288.4298 175.13 277.92377 181.88182 273.11734 192.40643L165.58672 143.29884C189.61887 90.67577 242.14906 56.916668 300.0 56.916668" fill-rule="nonzero"/><path fill="#1a6a83" d="M28.721874 76.93331Q28.721874 77.83956 28.378124 78.68331Q28.05 79.51144 27.471874 80.08956Q26.83125 80.69894 25.95625 81.02706Q25.096874 81.35519 23.940624 81.35519Q22.8625 81.35519 21.8625 81.13644Q20.878124 80.91769 20.190624 80.58956L20.190624 78.74581L20.315624 78.74581Q21.034374 79.19894 22.003124 79.52706Q22.971874 79.83956 23.909374 79.83956Q24.534374 79.83956 25.1125 79.66769Q25.690624 79.49581 26.159374 79.04269Q26.534374 78.66769 26.7375 78.15206Q26.940624 77.62081 26.940624 76.91769Q26.940624 76.24581 26.70625 75.77706Q26.471874 75.30831 26.05 75.02706Q25.596874 74.69894 24.940624 74.57394Q24.284374 74.43331 23.4875 74.43331Q22.70625 74.43331 21.9875 74.54269Q21.26875 74.63644 20.753124 74.74581L20.753124 67.99581L28.628124 67.99581L28.628124 69.54269L22.45625 69.54269L22.45625 73.02706Q22.83125 72.98019 23.221874 72.96456Q23.628124 72.94894 23.909374 72.94894Q24.971874 72.94894 25.76875 73.13644Q26.58125 73.30831 27.2375 73.76144Q27.940624 74.24581 28.33125 75.01144Q28.721874 75.77706 28.721874 76.93331ZM39.83125 81.08956L30.971874 81.08956L30.971874 79.24581Q31.89375 78.46456 32.815624 77.68331Q33.7375 76.88644 34.55 76.08956Q36.2375 74.46456 36.846874 73.51144Q37.471874 72.54269 37.471874 71.41769Q37.471874 70.40206 36.8 69.82394Q36.128124 69.24581 34.925 69.24581Q34.128124 69.24581 33.190624 69.52706Q32.26875 69.80831 31.378124 70.38644L31.284374 70.38644L31.284374 68.54269Q31.909374 68.24581 32.95625 67.99581Q34.003124 67.73019 34.971874 67.73019Q36.9875 67.73019 38.128124 68.69894Q39.26875 69.66769 39.26875 71.33956Q39.26875 72.07394 39.08125 72.73019Q38.89375 73.37081 38.51875 73.94894Q38.175 74.49581 37.70625 75.02706Q37.253124 75.55831 36.596874 76.19894Q35.659374 77.12081 34.659374 77.99581Q33.659374 78.85519 32.784374 79.58956L39.83125 79.58956L39.83125 81.08956ZM50.8 74.54269Q50.8 78.05831 49.690624 79.71456Q48.596874 81.35519 46.284374 81.35519Q43.925 81.35519 42.83125 79.69894Q41.753124 78.02706 41.753124 74.55831Q41.753124 71.07394 42.846874 69.41769Q43.95625 67.74581 46.284374 67.74581Q48.64375 67.74581 49.721874 69.43331Q50.8 71.12081 50.8 74.54269ZM48.503124 78.52706Q48.8 77.82394 48.909374 76.87081Q49.01875 75.90206 49.01875 74.54269Q49.01875 73.19894 48.909374 72.21456Q48.8 71.23019 48.4875 70.55831Q48.175 69.87081 47.64375 69.52706Q47.1125 69.18331 46.284374 69.18331Q45.45625 69.18331 44.909374 69.52706Q44.378124 69.87081 44.05 70.57394Q43.753124 71.21456 43.64375 72.26144Q43.534374 73.30831 43.534374 74.55831Q43.534374 75.93331 43.628124 76.85519Q43.7375 77.77706 44.05 78.51144Q44.33125 79.18331 44.8625 79.55831Q45.409374 79.91769 46.284374 79.91769Q47.1125 79.91769 47.64375 79.57394Q48.190624 79.23019 48.503124 78.52706ZM58.378124 76.15206L52.89375 76.15206L52.89375 74.57394L58.378124 74.57394L58.378124 76.15206ZM69.72188 76.93331Q69.72188 77.83956 69.37813 78.68331Q69.05 79.51144 68.47188 80.08956Q67.83125 80.69894 66.95625 81.02706Q66.09688 81.35519 64.94063 81.35519Q63.8625 81.35519 62.8625 81.13644Q61.878124 80.91769 61.190624 80.58956L61.190624 78.74581L61.315624 78.74581Q62.034374 79.19894 63.003124 79.52706Q63.971874 79.83956 64.90938 79.83956Q65.53438 79.83956 66.1125 79.66769Q66.69063 79.49581 67.15938 79.04269Q67.53438 78.66769 67.7375 78.15206Q67.94063 77.62081 67.94063 76.91769Q67.94063 76.24581 67.70625 75.77706Q67.47188 75.30831 67.05 75.02706Q66.59688 74.69894 65.94063 74.57394Q65.28438 74.43331 64.4875 74.43331Q63.70625 74.43331 62.9875 74.54269Q62.26875 74.63644 61.753124 74.74581L61.753124 67.99581L69.62813 67.99581L69.62813 69.54269L63.45625 69.54269L63.45625 73.02706Q63.83125 72.98019 64.22188 72.96456Q64.62813 72.94894 64.90938 72.94894Q65.97188 72.94894 66.76875 73.13644Q67.58125 73.30831 68.2375 73.76144Q68.94063 74.24581 69.33125 75.01144Q69.72188 75.77706 69.72188 76.93331ZM80.83125 81.08956L71.97188 81.08956L71.97188 79.24581Q72.89375 78.46456 73.81563 77.68331Q74.7375 76.88644 75.55 76.08956Q77.2375 74.46456 77.84688 73.51144Q78.47188 72.54269 78.47188 71.41769Q78.47188 70.40206 77.8 69.82394Q77.12813 69.24581 75.925 69.24581Q75.12813 69.24581 74.19063 69.52706Q73.26875 69.80831 72.37813 70.38644L72.28438 70.38644L72.28438 68.54269Q72.90938 68.24581 73.95625 67.99581Q75.00313 67.73019 75.97188 67.73019Q77.9875 67.73019 79.12813 68.69894Q80.26875 69.66769 80.26875 71.33956Q80.26875 72.07394 80.08125 72.73019Q79.89375 73.37081 79.51875 73.94894Q79.175 74.49581 78.70625 75.02706Q78.25313 75.55831 77.59688 76.19894Q76.65938 77.12081 75.65938 77.99581Q74.65938 78.85519 73.78438 79.58956L80.83125 79.58956L80.83125 81.08956ZM91.925 77.44894Q91.925 79.13644 90.59688 80.26144Q89.26875 81.38644 87.26875 81.38644Q85.14375 81.38644 83.87813 80.29269Q82.62813 79.18331 82.62813 77.48019Q82.62813 76.38644 83.25313 75.51144Q83.89375 74.62081 85.03438 74.10519L85.03438 74.04269Q83.9875 73.48019 83.47188 72.82394Q82.97188 72.15206 82.97188 71.15206Q82.97188 69.66769 84.175 68.68331Q85.39375 67.69894 87.26875 67.69894Q89.2375 67.69894 90.39375 68.65206Q91.56563 69.58956 91.56563 71.02706Q91.56563 71.91769 91.00313 72.77706Q90.45625 73.63644 89.39375 74.12081L89.39375 74.16769Q90.62813 74.69894 91.26875 75.48019Q91.925 76.24581 91.925 77.44894ZM89.83125 71.05831Q89.83125 70.10519 89.1125 69.55831Q88.39375 68.99581 87.26875 68.99581Q86.15938 68.99581 85.44063 69.52706Q84.7375 70.04269 84.7375 70.94894Q84.7375 71.57394 85.09688 72.04269Q85.45625 72.49581 86.175 72.85519Q86.50313 73.02706 87.1125 73.27706Q87.72188 73.52706 88.3 73.69894Q89.175 73.12081 89.50313 72.49581Q89.83125 71.87081 89.83125 71.05831ZM90.1125 77.60519Q90.1125 76.79269 89.75313 76.30831Q89.39375 75.82394 88.3625 75.33956Q87.95625 75.13644 87.45625 74.98019Q86.97188 74.80831 86.14375 74.51144Q85.3625 74.93331 84.87813 75.68331Q84.39375 76.41769 84.39375 77.33956Q84.39375 78.52706 85.20625 79.30831Q86.03438 80.07394 87.28438 80.07394Q88.56563 80.07394 89.33125 79.41769Q90.1125 78.76144 90.1125 77.60519Z" fill-rule="nonzero"/><path fill="#9e9e9e" d="M28.08125 107.08956L20.9875 107.08956L20.9875 105.74581L23.721874 105.74581L23.721874 96.98019L20.9875 96.98019L20.9875 95.79269Q21.55 95.79269 22.175 95.69894Q22.815624 95.60519 23.14375 95.43331Q23.55 95.19894 23.76875 94.87081Q24.003124 94.52706 24.05 93.96456L25.409374 93.96456L25.409374 105.74581L28.08125 105.74581L28.08125 107.08956ZM39.925 103.44894Q39.925 105.13644 38.596874 106.26144Q37.26875 107.38644 35.26875 107.38644Q33.14375 107.38644 31.878124 106.29269Q30.628124 105.18331 30.628124 103.48019Q30.628124 102.38644 31.253124 101.51144Q31.89375 100.62081 33.034374 100.10519L33.034374 100.04269Q31.9875 99.48019 31.471874 98.82394Q30.971874 98.15206 30.971874 97.15206Q30.971874 95.66769 32.175 94.68331Q33.39375 93.69894 35.26875 93.69894Q37.2375 93.69894 38.39375 94.65206Q39.565624 95.58956 39.565624 97.02706Q39.565624 97.91769 39.003124 98.77706Q38.45625 99.63644 37.39375 100.12081L37.39375 100.16769Q38.628124 100.69894 39.26875 101.48019Q39.925 102.24581 39.925 103.44894ZM37.83125 97.05831Q37.83125 96.10519 37.1125 95.55831Q36.39375 94.99581 35.26875 94.99581Q34.159374 94.99581 33.440624 95.52706Q32.7375 96.04269 32.7375 96.94894Q32.7375 97.57394 33.096874 98.04269Q33.45625 98.49581 34.175 98.85519Q34.503124 99.02706 35.1125 99.27706Q35.721874 99.52706 36.3 99.69894Q37.175 99.12081 37.503124 98.49581Q37.83125 97.87081 37.83125 97.05831ZM38.1125 103.60519Q38.1125 102.79269 37.753124 102.30831Q37.39375 101.82394 36.3625 101.33956Q35.95625 101.13644 35.45625 100.98019Q34.971874 100.80831 34.14375 100.51144Q33.3625 100.93331 32.878124 101.68331Q32.39375 102.41769 32.39375 103.33956Q32.39375 104.52706 33.20625 105.30831Q34.034374 106.07394 35.284374 106.07394Q36.565624 106.07394 37.33125 105.41769Q38.1125 104.76144 38.1125 103.60519ZM44.878124 107.08956L42.76875 107.08956L42.76875 104.58956L44.878124 104.58956L44.878124 107.08956ZM57.83125 107.08956L48.971874 107.08956L48.971874 105.24581Q49.89375 104.46456 50.815624 103.68331Q51.7375 102.88644 52.55 102.08956Q54.2375 100.46456 54.846874 99.51144Q55.471874 98.54269 55.471874 97.41769Q55.471874 96.40206 54.8 95.82394Q54.128124 95.24581 52.925 95.24581Q52.128124 95.24581 51.190624 95.52706Q50.26875 95.80831 49.378124 96.38644L49.284374 96.38644L49.284374 94.54269Q49.909374 94.24581 50.95625 93.99581Q52.003124 93.73019 52.971874 93.73019Q54.9875 93.73019 56.128124 94.69894Q57.26875 95.66769 57.26875 97.33956Q57.26875 98.07394 57.08125 98.73019Q56.89375 99.37081 56.51875 99.94894Q56.175 100.49581 55.70625 101.02706Q55.253124 101.55831 54.596874 102.19894Q53.659374 103.12081 52.659374 103.99581Q51.659374 104.85519 50.784374 105.58956L57.83125 105.58956L57.83125 107.08956ZM66.31563 97.63644Q66.31563 99.60519 65.4875 100.55831Q64.65938 101.51144 63.096874 101.51144Q61.4875 101.51144 60.675 100.55831Q59.8625 99.60519 59.8625 97.63644Q59.8625 95.66769 60.690624 94.71456Q61.534374 93.76144 63.096874 93.76144Q64.69063 93.76144 65.50313 94.73019Q66.31563 95.68331 66.31563 97.63644ZM72.39375 93.99581L65.53438 107.08956L64.08125 107.08956L70.94063 93.99581L72.39375 93.99581ZM76.6125 103.46456Q76.6125 105.43331 75.76875 106.38644Q74.94063 107.33956 73.37813 107.33956Q71.78438 107.33956 70.97188 106.38644Q70.15938 105.41769 70.15938 103.46456Q70.15938 101.49581 70.9875 100.54269Q71.81563 99.58956 73.37813 99.58956Q74.97188 99.58956 75.78438 100.54269Q76.6125 101.49581 76.6125 103.46456ZM64.75313 97.63644Q64.75313 96.12081 64.3625 95.52706Q63.971874 94.91769 63.096874 94.91769Q62.190624 94.91769 61.8 95.52706Q61.425 96.12081 61.425 97.63644Q61.425 99.16769 61.8 99.76144Q62.190624 100.35519 63.096874 100.35519Q63.971874 100.35519 64.3625 99.76144Q64.75313 99.16769 64.75313 97.63644ZM75.05 103.46456Q75.05 101.94894 74.65938 101.35519Q74.26875 100.74581 73.39375 100.74581Q72.4875 100.74581 72.09688 101.35519Q71.72188 101.94894 71.72188 103.46456Q71.72188 104.99581 72.09688 105.58956Q72.4875 106.16769 73.39375 106.16769Q74.26875 106.16769 74.65938 105.58956Q75.05 104.99581 75.05 103.46456Z" fill-rule="nonzero"/><path stroke="#757575" stroke-width="1.0" stroke-linecap="butt" d="M18.55 86.58956L146.23334 86.58956L224.10574 86.58956" fill-rule="nonzero"/><path fill="#9e9e9e" d="M226.10574 86.58956C226.10574 85.48499 225.21031 84.58956 224.10574 84.58956C223.00117 84.58956 222.10574 85.48499 222.10574 86.58956C222.10574 87.69414 223.00117 88.58956 224.10574 88.58956C225.21031 88.58956 226.10574 87.69414 226.10574 86.58956" fill-rule="nonzero"/><path fill="#1a6a83" d="M28.721874 313.12085Q28.721874 314.0271 28.378124 314.87085Q28.05 315.69897 27.471874 316.2771Q26.83125 316.88647 25.95625 317.2146Q25.096874 317.54272 23.940624 317.54272Q22.8625 317.54272 21.8625 317.32397Q20.878124 317.10522 20.190624 316.7771L20.190624 314.93335L20.315624 314.93335Q21.034374 315.38647 22.003124 315.7146Q22.971874 316.0271 23.909374 316.0271Q24.534374 316.0271 25.1125 315.85522Q25.690624 315.68335 26.159374 315.23022Q26.534374 314.85522 26.7375 314.3396Q26.940624 313.80835 26.940624 313.10522Q26.940624 312.43335 26.70625 311.9646Q26.471874 311.49585 26.05 311.2146Q25.596874 310.88647 24.940624 310.76147Q24.284374 310.62085 23.4875 310.62085Q22.70625 310.62085 21.9875 310.73022Q21.26875 310.82397 20.753124 310.93335L20.753124 304.18335L28.628124 304.18335L28.628124 305.73022L22.45625 305.73022L22.45625 309.2146Q22.83125 309.16772 23.221874 309.1521Q23.628124 309.13647 23.909374 309.13647Q24.971874 309.13647 25.76875 309.32397Q26.58125 309.49585 27.2375 309.94897Q27.940624 310.43335 28.33125 311.19897Q28.721874 311.9646 28.721874 313.12085ZM39.08125 317.2771L31.9875 317.2771L31.9875 315.93335L34.721874 315.93335L34.721874 307.16772L31.9875 307.16772L31.9875 305.98022Q32.55 305.98022 33.175 305.88647Q33.815624 305.79272 34.14375 305.62085Q34.55 305.38647 34.76875 305.05835Q35.003124 304.7146 35.05 304.1521L36.409374 304.1521L36.409374 315.93335L39.08125 315.93335L39.08125 317.2771ZM50.721874 313.12085Q50.721874 314.0271 50.378124 314.87085Q50.05 315.69897 49.471874 316.2771Q48.83125 316.88647 47.95625 317.2146Q47.096874 317.54272 45.940624 317.54272Q44.8625 317.54272 43.8625 317.32397Q42.878124 317.10522 42.190624 316.7771L42.190624 314.93335L42.315624 314.93335Q43.034374 315.38647 44.003124 315.7146Q44.971874 316.0271 45.909374 316.0271Q46.534374 316.0271 47.1125 315.85522Q47.690624 315.68335 48.159374 315.23022Q48.534374 314.85522 48.7375 314.3396Q48.940624 313.80835 48.940624 313.10522Q48.940624 312.43335 48.70625 311.9646Q48.471874 311.49585 48.05 311.2146Q47.596874 310.88647 46.940624 310.76147Q46.284374 310.62085 45.4875 310.62085Q44.70625 310.62085 43.9875 310.73022Q43.26875 310.82397 42.753124 310.93335L42.753124 304.18335L50.628124 304.18335L50.628124 305.73022L44.45625 305.73022L44.45625 309.2146Q44.83125 309.16772 45.221874 309.1521Q45.628124 309.13647 45.909374 309.13647Q46.971874 309.13647 47.76875 309.32397Q48.58125 309.49585 49.2375 309.94897Q49.940624 310.43335 50.33125 311.19897Q50.721874 311.9646 50.721874 313.12085ZM58.378124 312.3396L52.89375 312.3396L52.89375 310.76147L58.378124 310.76147L58.378124 312.3396ZM69.72188 313.12085Q69.72188 314.0271 69.37813 314.87085Q69.05 315.69897 68.47188 316.2771Q67.83125 316.88647 66.95625 317.2146Q66.09688 317.54272 64.94063 317.54272Q63.8625 317.54272 62.8625 317.32397Q61.878124 317.10522 61.190624 316.7771L61.190624 314.93335L61.315624 314.93335Q62.034374 315.38647 63.003124 315.7146Q63.971874 316.0271 64.90938 316.0271Q65.53438 316.0271 66.1125 315.85522Q66.69063 315.68335 67.15938 315.23022Q67.53438 314.85522 67.7375 314.3396Q67.94063 313.80835 67.94063 313.10522Q67.94063 312.43335 67.70625 311.9646Q67.47188 311.49585 67.05 311.2146Q66.59688 310.88647 65.94063 310.76147Q65.28438 310.62085 64.4875 310.62085Q63.70625 310.62085 62.9875 310.73022Q62.26875 310.82397 61.753124 310.93335L61.753124 304.18335L69.62813 304.18335L69.62813 305.73022L63.45625 305.73022L63.45625 309.2146Q63.83125 309.16772 64.22188 309.1521Q64.62813 309.13647 64.90938 309.13647Q65.97188 309.13647 66.76875 309.32397Q67.58125 309.49585 68.2375 309.94897Q68.94063 310.43335 69.33125 311.19897Q69.72188 311.9646 69.72188 313.12085ZM80.83125 317.2771L71.97188 317.2771L71.97188 315.43335Q72.89375 314.6521 73.81563 313.87085Q74.7375 313.07397 75.55 312.2771Q77.2375 310.6521 77.84688 309.69897Q78.47188 308.73022 78.47188 307.60522Q78.47188 306.5896 77.8 306.01147Q77.12813 305.43335 75.925 305.43335Q75.12813 305.43335 74.19063 305.7146Q73.26875 305.99585 72.37813 306.57397L72.28438 306.57397L72.28438 304.73022Q72.90938 304.43335 73.95625 304.18335Q75.00313 303.91772 75.97188 303.91772Q77.9875 303.91772 79.12813 304.88647Q80.26875 305.85522 80.26875 307.5271Q80.26875 308.26147 80.08125 308.91772Q79.89375 309.55835 79.51875 310.13647Q79.175 310.68335 78.70625 311.2146Q78.25313 311.74585 77.59688 312.38647Q76.65938 313.30835 75.65938 314.18335Q74.65938 315.04272 73.78438 315.7771L80.83125 315.7771L80.83125 317.2771ZM91.8 310.73022Q91.8 314.24585 90.69063 315.9021Q89.59688 317.54272 87.28438 317.54272Q84.925 317.54272 83.83125 315.88647Q82.75313 314.2146 82.75313 310.74585Q82.75313 307.26147 83.84688 305.60522Q84.95625 303.93335 87.28438 303.93335Q89.64375 303.93335 90.72188 305.62085Q91.8 307.30835 91.8 310.73022ZM89.50313 314.7146Q89.8 314.01147 89.90938 313.05835Q90.01875 312.0896 90.01875 310.73022Q90.01875 309.38647 89.90938 308.4021Q89.8 307.41772 89.4875 306.74585Q89.175 306.05835 88.64375 305.7146Q88.1125 305.37085 87.28438 305.37085Q86.45625 305.37085 85.90938 305.7146Q85.37813 306.05835 85.05 306.76147Q84.75313 307.4021 84.64375 308.44897Q84.53438 309.49585 84.53438 310.74585Q84.53438 312.12085 84.62813 313.04272Q84.7375 313.9646 85.05 314.69897Q85.33125 315.37085 85.8625 315.74585Q86.40938 316.10522 87.28438 316.10522Q88.1125 316.10522 88.64375 315.76147Q89.19063 315.41772 89.50313 314.7146Z" fill-rule="nonzero"/><path fill="#9e9e9e" d="M29.128124 339.5896L27.175 339.5896L27.175 343.2771L25.4875 343.2771L25.4875 339.5896L19.221874 339.5896L19.221874 337.57397L25.565624 330.18335L27.175 330.18335L27.175 338.18335L29.128124 338.18335L29.128124 339.5896ZM25.4875 338.18335L25.4875 332.2771L20.425 338.18335L25.4875 338.18335ZM39.721874 339.12085Q39.721874 340.0271 39.378124 340.87085Q39.05 341.69897 38.471874 342.2771Q37.83125 342.88647 36.95625 343.2146Q36.096874 343.54272 34.940624 343.54272Q33.8625 343.54272 32.8625 343.32397Q31.878124 343.10522 31.190624 342.7771L31.190624 340.93335L31.315624 340.93335Q32.034374 341.38647 33.003124 341.7146Q33.971874 342.0271 34.909374 342.0271Q35.534374 342.0271 36.1125 341.85522Q36.690624 341.68335 37.159374 341.23022Q37.534374 340.85522 37.7375 340.3396Q37.940624 339.80835 37.940624 339.10522Q37.940624 338.43335 37.70625 337.9646Q37.471874 337.49585 37.05 337.2146Q36.596874 336.88647 35.940624 336.76147Q35.284374 336.62085 34.4875 336.62085Q33.70625 336.62085 32.9875 336.73022Q32.26875 336.82397 31.753124 336.93335L31.753124 330.18335L39.628124 330.18335L39.628124 331.73022L33.45625 331.73022L33.45625 335.2146Q33.83125 335.16772 34.221874 335.1521Q34.628124 335.13647 34.909374 335.13647Q35.971874 335.13647 36.76875 335.32397Q37.58125 335.49585 38.2375 335.94897Q38.940624 336.43335 39.33125 337.19897Q39.721874 337.9646 39.721874 339.12085ZM44.878124 343.2771L42.76875 343.2771L42.76875 340.7771L44.878124 340.7771L44.878124 343.2771ZM57.721874 339.12085Q57.721874 340.0271 57.378124 340.87085Q57.05 341.69897 56.471874 342.2771Q55.83125 342.88647 54.95625 343.2146Q54.096874 343.54272 52.940624 343.54272Q51.8625 343.54272 50.8625 343.32397Q49.878124 343.10522 49.190624 342.7771L49.190624 340.93335L49.315624 340.93335Q50.034374 341.38647 51.003124 341.7146Q51.971874 342.0271 52.909374 342.0271Q53.534374 342.0271 54.1125 341.85522Q54.690624 341.68335 55.159374 341.23022Q55.534374 340.85522 55.7375 340.3396Q55.940624 339.80835 55.940624 339.10522Q55.940624 338.43335 55.70625 337.9646Q55.471874 337.49585 55.05 337.2146Q54.596874 336.88647 53.940624 336.76147Q53.284374 336.62085 52.4875 336.62085Q51.70625 336.62085 50.9875 336.73022Q50.26875 336.82397 49.753124 336.93335L49.753124 330.18335L57.628124 330.18335L57.628124 331.73022L51.45625 331.73022L51.45625 335.2146Q51.83125 335.16772 52.221874 335.1521Q52.628124 335.13647 52.909374 335.13647Q53.971874 335.13647 54.76875 335.32397Q55.58125 335.49585 56.2375 335.94897Q56.940624 336.43335 57.33125 337.19897Q57.721874 337.9646 57.721874 339.12085ZM66.31563 333.82397Q66.31563 335.79272 65.4875 336.74585Q64.65938 337.69897 63.096874 337.69897Q61.4875 337.69897 60.675 336.74585Q59.8625 335.79272 59.8625 333.82397Q59.8625 331.85522 60.690624 330.9021Q61.534374 329.94897 63.096874 329.94897Q64.69063 329.94897 65.50313 330.91772Q66.31563 331.87085 66.31563 333.82397ZM72.39375 330.18335L65.53438 343.2771L64.08125 343.2771L70.94063 330.18335L72.39375 330.18335ZM76.6125 339.6521Q76.6125 341.62085 75.76875 342.57397Q74.94063 343.5271 73.37813 343.5271Q71.78438 343.5271 70.97188 342.57397Q70.15938 341.60522 70.15938 339.6521Q70.15938 337.68335 70.9875 336.73022Q71.81563 335.7771 73.37813 335.7771Q74.97188 335.7771 75.78438 336.73022Q76.6125 337.68335 76.6125 339.6521ZM64.75313 333.82397Q64.75313 332.30835 64.3625 331.7146Q63.971874 331.10522 63.096874 331.10522Q62.190624 331.10522 61.8 331.7146Q61.425 332.30835 61.425 333.82397Q61.425 335.35522 61.8 335.94897Q62.190624 336.54272 63.096874 336.54272Q63.971874 336.54272 64.3625 335.94897Q64.75313 335.35522 64.75313 333.82397ZM75.05 339.6521Q75.05 338.13647 74.65938 337.54272Q74.26875 336.93335 73.39375 336.93335Q72.4875 336.93335 72.09688 337.54272Q71.72188 338.13647 71.72188 339.6521Q71.72188 341.18335 72.09688 341.7771Q72.4875 342.35522 73.39375 342.35522Q74.26875 342.35522 74.65938 341.7771Q75.05 341.18335 75.05 339.6521Z" fill-rule="nonzero"/><path stroke="#757575" stroke-width="1.0" stroke-linecap="butt" d="M18.55 322.7771L146.23334 322.7771L224.10574 322.7771" fill-rule="nonzero"/><path fill="#9e9e9e" d="M226.10574 322.7771C226.10574 321.67255 225.21031 320.7771 224.10574 320.7771C223.00117 320.7771 222.10574 321.67255 222.10574 322.7771C222.10574 323.88168 223.00117 324.7771 224.10574 324.7771C225.21031 324.7771 226.10574 323.88168 226.10574 322.7771" fill-rule="nonzero"/><path fill="#1a6a83" d="M517.6219 88.93622Q517.6219 89.84247 517.27814 90.68622Q516.95 91.51434 516.3719 92.09247Q515.73126 92.70184 514.85626 93.02997Q513.9969 93.35809 512.84064 93.35809Q511.7625 93.35809 510.7625 93.13934Q509.77814 92.92059 509.09064 92.59247L509.09064 90.74872L509.21564 90.74872Q509.9344 91.20184 510.90314 91.52997Q511.8719 91.84247 512.8094 91.84247Q513.4344 91.84247 514.0125 91.67059Q514.59064 91.49872 515.0594 91.04559Q515.4344 90.67059 515.6375 90.15497Q515.84064 89.62372 515.84064 88.92059Q515.84064 88.24872 515.60626 87.77997Q515.3719 87.31122 514.95 87.02997Q514.4969 86.70184 513.84064 86.57684Q513.1844 86.43622 512.3875 86.43622Q511.60626 86.43622 510.8875 86.54559Q510.16876 86.63934 509.65314 86.74872L509.65314 79.99872L517.52814 79.99872L517.52814 81.54559L511.35626 81.54559L511.35626 85.02997Q511.73126 84.98309 512.1219 84.96747Q512.52814 84.95184 512.8094 84.95184Q513.8719 84.95184 514.66876 85.13934Q515.48126 85.31122 516.1375 85.76434Q516.84064 86.24872 517.23126 87.01434Q517.6219 87.77997 517.6219 88.93622ZM527.98126 93.09247L520.8875 93.09247L520.8875 91.74872L523.6219 91.74872L523.6219 82.98309L520.8875 82.98309L520.8875 81.79559Q521.45 81.79559 522.075 81.70184Q522.71564 81.60809 523.04376 81.43622Q523.45 81.20184 523.66876 80.87372Q523.90314 80.52997 523.95 79.96747L525.3094 79.96747L525.3094 91.74872L527.98126 91.74872L527.98126 93.09247ZM539.7 86.54559Q539.7 90.06122 538.59064 91.71747Q537.4969 93.35809 535.1844 93.35809Q532.825 93.35809 531.73126 91.70184Q530.65314 90.02997 530.65314 86.56122Q530.65314 83.07684 531.7469 81.42059Q532.85626 79.74872 535.1844 79.74872Q537.54376 79.74872 538.6219 81.43622Q539.7 83.12372 539.7 86.54559ZM537.40314 90.52997Q537.7 89.82684 537.8094 88.87372Q537.91876 87.90497 537.91876 86.54559Q537.91876 85.20184 537.8094 84.21747Q537.7 83.23309 537.3875 82.56122Q537.075 81.87372 536.54376 81.52997Q536.0125 81.18622 535.1844 81.18622Q534.35626 81.18622 533.8094 81.52997Q533.27814 81.87372 532.95 82.57684Q532.65314 83.21747 532.54376 84.26434Q532.4344 85.31122 532.4344 86.56122Q532.4344 87.93622 532.52814 88.85809Q532.6375 89.77997 532.95 90.51434Q533.23126 91.18622 533.7625 91.56122Q534.3094 91.92059 535.1844 91.92059Q536.0125 91.92059 536.54376 91.57684Q537.09064 91.23309 537.40314 90.52997ZM547.27814 88.15497L541.79376 88.15497L541.79376 86.57684L547.27814 86.57684L547.27814 88.15497ZM558.6219 88.93622Q558.6219 89.84247 558.27814 90.68622Q557.95 91.51434 557.3719 92.09247Q556.73126 92.70184 555.85626 93.02997Q554.9969 93.35809 553.84064 93.35809Q552.7625 93.35809 551.7625 93.13934Q550.77814 92.92059 550.09064 92.59247L550.09064 90.74872L550.21564 90.74872Q550.9344 91.20184 551.90314 91.52997Q552.8719 91.84247 553.8094 91.84247Q554.4344 91.84247 555.0125 91.67059Q555.59064 91.49872 556.0594 91.04559Q556.4344 90.67059 556.6375 90.15497Q556.84064 89.62372 556.84064 88.92059Q556.84064 88.24872 556.60626 87.77997Q556.3719 87.31122 555.95 87.02997Q555.4969 86.70184 554.84064 86.57684Q554.1844 86.43622 553.3875 86.43622Q552.60626 86.43622 551.8875 86.54559Q551.16876 86.63934 550.65314 86.74872L550.65314 79.99872L558.52814 79.99872L558.52814 81.54559L552.35626 81.54559L552.35626 85.02997Q552.73126 84.98309 553.1219 84.96747Q553.52814 84.95184 553.8094 84.95184Q554.8719 84.95184 555.66876 85.13934Q556.48126 85.31122 557.1375 85.76434Q557.84064 86.24872 558.23126 87.01434Q558.6219 87.77997 558.6219 88.93622ZM568.98126 93.09247L561.8875 93.09247L561.8875 91.74872L564.6219 91.74872L564.6219 82.98309L561.8875 82.98309L561.8875 81.79559Q562.45 81.79559 563.075 81.70184Q563.71564 81.60809 564.04376 81.43622Q564.45 81.20184 564.66876 80.87372Q564.90314 80.52997 564.95 79.96747L566.3094 79.96747L566.3094 91.74872L568.98126 91.74872L568.98126 93.09247ZM580.6219 88.93622Q580.6219 89.84247 580.27814 90.68622Q579.95 91.51434 579.3719 92.09247Q578.73126 92.70184 577.85626 93.02997Q576.9969 93.35809 575.84064 93.35809Q574.7625 93.35809 573.7625 93.13934Q572.77814 92.92059 572.09064 92.59247L572.09064 90.74872L572.21564 90.74872Q572.9344 91.20184 573.90314 91.52997Q574.8719 91.84247 575.8094 91.84247Q576.4344 91.84247 577.0125 91.67059Q577.59064 91.49872 578.0594 91.04559Q578.4344 90.67059 578.6375 90.15497Q578.84064 89.62372 578.84064 88.92059Q578.84064 88.24872 578.60626 87.77997Q578.3719 87.31122 577.95 87.02997Q577.4969 86.70184 576.84064 86.57684Q576.1844 86.43622 575.3875 86.43622Q574.60626 86.43622 573.8875 86.54559Q573.16876 86.63934 572.65314 86.74872L572.65314 79.99872L580.52814 79.99872L580.52814 81.54559L574.35626 81.54559L574.35626 85.02997Q574.73126 84.98309 575.1219 84.96747Q575.52814 84.95184 575.8094 84.95184Q576.8719 84.95184 577.66876 85.13934Q578.48126 85.31122 579.1375 85.76434Q579.84064 86.24872 580.23126 87.01434Q580.6219 87.77997 580.6219 88.93622Z" fill-rule="nonzero"/><path fill="#9e9e9e" d="M532.73126 119.09247L523.8719 119.09247L523.8719 117.24872Q524.79376 116.46747 525.71564 115.68622Q526.6375 114.88934 527.45 114.09247Q529.1375 112.46747 529.7469 111.51434Q530.3719 110.54559 530.3719 109.42059Q530.3719 108.40497 529.7 107.82684Q529.02814 107.24872 527.825 107.24872Q527.02814 107.24872 526.09064 107.52997Q525.16876 107.81122 524.27814 108.38934L524.1844 108.38934L524.1844 106.54559Q524.8094 106.24872 525.85626 105.99872Q526.90314 105.73309 527.8719 105.73309Q529.8875 105.73309 531.02814 106.70184Q532.16876 107.67059 532.16876 109.34247Q532.16876 110.07684 531.98126 110.73309Q531.79376 111.37372 531.41876 111.95184Q531.075 112.49872 530.60626 113.02997Q530.15314 113.56122 529.4969 114.20184Q528.5594 115.12372 527.5594 115.99872Q526.5594 116.85809 525.6844 117.59247L532.73126 117.59247L532.73126 119.09247ZM543.73126 119.09247L534.8719 119.09247L534.8719 117.24872Q535.79376 116.46747 536.71564 115.68622Q537.6375 114.88934 538.45 114.09247Q540.1375 112.46747 540.7469 111.51434Q541.3719 110.54559 541.3719 109.42059Q541.3719 108.40497 540.7 107.82684Q540.02814 107.24872 538.825 107.24872Q538.02814 107.24872 537.09064 107.52997Q536.16876 107.81122 535.27814 108.38934L535.1844 108.38934L535.1844 106.54559Q535.8094 106.24872 536.85626 105.99872Q537.90314 105.73309 538.8719 105.73309Q540.8875 105.73309 542.02814 106.70184Q543.16876 107.67059 543.16876 109.34247Q543.16876 110.07684 542.98126 110.73309Q542.79376 111.37372 542.41876 111.95184Q542.075 112.49872 541.60626 113.02997Q541.15314 113.56122 540.4969 114.20184Q539.5594 115.12372 538.5594 115.99872Q537.5594 116.85809 536.6844 117.59247L543.73126 117.59247L543.73126 119.09247ZM548.77814 119.09247L546.66876 119.09247L546.66876 116.59247L548.77814 116.59247L548.77814 119.09247ZM561.7625 107.96747L555.84064 119.09247L553.95 119.09247L560.2625 107.54559L552.8094 107.54559L552.8094 105.99872L561.7625 105.99872L561.7625 107.96747ZM570.21564 109.63934Q570.21564 111.60809 569.3875 112.56122Q568.5594 113.51434 566.9969 113.51434Q565.3875 113.51434 564.575 112.56122Q563.7625 111.60809 563.7625 109.63934Q563.7625 107.67059 564.59064 106.71747Q565.4344 105.76434 566.9969 105.76434Q568.59064 105.76434 569.40314 106.73309Q570.21564 107.68622 570.21564 109.63934ZM576.29376 105.99872L569.4344 119.09247L567.98126 119.09247L574.84064 105.99872L576.29376 105.99872ZM580.5125 115.46747Q580.5125 117.43622 579.66876 118.38934Q578.84064 119.34247 577.27814 119.34247Q575.6844 119.34247 574.8719 118.38934Q574.0594 117.42059 574.0594 115.46747Q574.0594 113.49872 574.8875 112.54559Q575.71564 111.59247 577.27814 111.59247Q578.8719 111.59247 579.6844 112.54559Q580.5125 113.49872 580.5125 115.46747ZM568.65314 109.63934Q568.65314 108.12372 568.2625 107.52997Q567.8719 106.92059 566.9969 106.92059Q566.09064 106.92059 565.7 107.52997Q565.325 108.12372 565.325 109.63934Q565.325 111.17059 565.7 111.76434Q566.09064 112.35809 566.9969 112.35809Q567.8719 112.35809 568.2625 111.76434Q568.65314 111.17059 568.65314 109.63934ZM578.95 115.46747Q578.95 113.95184 578.5594 113.35809Q578.16876 112.74872 577.29376 112.74872Q576.3875 112.74872 575.9969 113.35809Q575.6219 113.95184 575.6219 115.46747Q575.6219 116.99872 575.9969 117.59247Q576.3875 118.17059 577.29376 118.17059Q578.16876 118.17059 578.5594 117.59247Q578.95 116.99872 578.95 115.46747Z" fill-rule="nonzero"/><path stroke="#757575" stroke-width="1.0" stroke-linecap="butt" d="M581.45 98.59247L453.76666 98.59247L391.92825 98.59247" fill-rule="nonzero"/><path fill="#9e9e9e" d="M393.92825 98.59247C393.92825 97.4879 393.03284 96.59247 391.92825 96.59247C390.8237 96.59247 389.92825 97.4879 389.92825 98.59247C389.92825 99.69704 390.8237 100.59247 391.92825 100.59247C393.03284 100.59247 393.92825 99.69704 393.92825 98.59247" fill-rule="nonzero"/><path fill="#1a6a83" d="M517.6219 234.57623Q517.6219 235.48248 517.27814 236.32623Q516.95 237.15436 516.3719 237.73248Q515.73126 238.34186 514.85626 238.66998Q513.9969 238.99811 512.84064 238.99811Q511.7625 238.99811 510.7625 238.77936Q509.77814 238.56061 509.09064 238.23248L509.09064 236.38873L509.21564 236.38873Q509.9344 236.84186 510.90314 237.16998Q511.8719 237.48248 512.8094 237.48248Q513.4344 237.48248 514.0125 237.31061Q514.59064 237.13873 515.0594 236.68561Q515.4344 236.31061 515.6375 235.79498Q515.84064 235.26373 515.84064 234.56061Q515.84064 233.88873 515.60626 233.41998Q515.3719 232.95123 514.95 232.66998Q514.4969 232.34186 513.84064 232.21686Q513.1844 232.07623 512.3875 232.07623Q511.60626 232.07623 510.8875 232.18561Q510.16876 232.27936 509.65314 232.38873L509.65314 225.63873L517.52814 225.63873L517.52814 227.18561L511.35626 227.18561L511.35626 230.66998Q511.73126 230.62311 512.1219 230.60748Q512.52814 230.59186 512.8094 230.59186Q513.8719 230.59186 514.66876 230.77936Q515.48126 230.95123 516.1375 231.40436Q516.84064 231.88873 517.23126 232.65436Q517.6219 233.41998 517.6219 234.57623ZM528.7 232.18561Q528.7 235.70123 527.59064 237.35748Q526.4969 238.99811 524.1844 238.99811Q521.825 238.99811 520.73126 237.34186Q519.65314 235.66998 519.65314 232.20123Q519.65314 228.71686 520.7469 227.06061Q521.85626 225.38873 524.1844 225.38873Q526.54376 225.38873 527.6219 227.07623Q528.7 228.76373 528.7 232.18561ZM526.40314 236.16998Q526.7 235.46686 526.8094 234.51373Q526.91876 233.54498 526.91876 232.18561Q526.91876 230.84186 526.8094 229.85748Q526.7 228.87311 526.3875 228.20123Q526.075 227.51373 525.54376 227.16998Q525.0125 226.82623 524.1844 226.82623Q523.35626 226.82623 522.8094 227.16998Q522.27814 227.51373 521.95 228.21686Q521.65314 228.85748 521.54376 229.90436Q521.4344 230.95123 521.4344 232.20123Q521.4344 233.57623 521.52814 234.49811Q521.6375 235.41998 521.95 236.15436Q522.23126 236.82623 522.7625 237.20123Q523.3094 237.56061 524.1844 237.56061Q525.0125 237.56061 525.54376 237.21686Q526.09064 236.87311 526.40314 236.16998ZM539.7 232.18561Q539.7 235.70123 538.59064 237.35748Q537.4969 238.99811 535.1844 238.99811Q532.825 238.99811 531.73126 237.34186Q530.65314 235.66998 530.65314 232.20123Q530.65314 228.71686 531.7469 227.06061Q532.85626 225.38873 535.1844 225.38873Q537.54376 225.38873 538.6219 227.07623Q539.7 228.76373 539.7 232.18561ZM537.40314 236.16998Q537.7 235.46686 537.8094 234.51373Q537.91876 233.54498 537.91876 232.18561Q537.91876 230.84186 537.8094 229.85748Q537.7 228.87311 537.3875 228.20123Q537.075 227.51373 536.54376 227.16998Q536.0125 226.82623 535.1844 226.82623Q534.35626 226.82623 533.8094 227.16998Q533.27814 227.51373 532.95 228.21686Q532.65314 228.85748 532.54376 229.90436Q532.4344 230.95123 532.4344 232.20123Q532.4344 233.57623 532.52814 234.49811Q532.6375 235.41998 532.95 236.15436Q533.23126 236.82623 533.7625 237.20123Q534.3094 237.56061 535.1844 237.56061Q536.0125 237.56061 536.54376 237.21686Q537.09064 236.87311 537.40314 236.16998ZM547.27814 233.79498L541.79376 233.79498L541.79376 232.21686L547.27814 232.21686L547.27814 233.79498ZM558.6219 234.57623Q558.6219 235.48248 558.27814 236.32623Q557.95 237.15436 557.3719 237.73248Q556.73126 238.34186 555.85626 238.66998Q554.9969 238.99811 553.84064 238.99811Q552.7625 238.99811 551.7625 238.77936Q550.77814 238.56061 550.09064 238.23248L550.09064 236.38873L550.21564 236.38873Q550.9344 236.84186 551.90314 237.16998Q552.8719 237.48248 553.8094 237.48248Q554.4344 237.48248 555.0125 237.31061Q555.59064 237.13873 556.0594 236.68561Q556.4344 236.31061 556.6375 235.79498Q556.84064 235.26373 556.84064 234.56061Q556.84064 233.88873 556.60626 233.41998Q556.3719 232.95123 555.95 232.66998Q555.4969 232.34186 554.84064 232.21686Q554.1844 232.07623 553.3875 232.07623Q552.60626 232.07623 551.8875 232.18561Q551.16876 232.27936 550.65314 232.38873L550.65314 225.63873L558.52814 225.63873L558.52814 227.18561L552.35626 227.18561L552.35626 230.66998Q552.73126 230.62311 553.1219 230.60748Q553.52814 230.59186 553.8094 230.59186Q554.8719 230.59186 555.66876 230.77936Q556.48126 230.95123 557.1375 231.40436Q557.84064 231.88873 558.23126 232.65436Q558.6219 233.41998 558.6219 234.57623ZM568.98126 238.73248L561.8875 238.73248L561.8875 237.38873L564.6219 237.38873L564.6219 228.62311L561.8875 228.62311L561.8875 227.43561Q562.45 227.43561 563.075 227.34186Q563.71564 227.24811 564.04376 227.07623Q564.45 226.84186 564.66876 226.51373Q564.90314 226.16998 564.95 225.60748L566.3094 225.60748L566.3094 237.38873L568.98126 237.38873L568.98126 238.73248ZM580.7 232.18561Q580.7 235.70123 579.59064 237.35748Q578.4969 238.99811 576.1844 238.99811Q573.825 238.99811 572.73126 237.34186Q571.65314 235.66998 571.65314 232.20123Q571.65314 228.71686 572.7469 227.06061Q573.85626 225.38873 576.1844 225.38873Q578.54376 225.38873 579.6219 227.07623Q580.7 228.76373 580.7 232.18561ZM578.40314 236.16998Q578.7 235.46686 578.8094 234.51373Q578.91876 233.54498 578.91876 232.18561Q578.91876 230.84186 578.8094 229.85748Q578.7 228.87311 578.3875 228.20123Q578.075 227.51373 577.54376 227.16998Q577.0125 226.82623 576.1844 226.82623Q575.35626 226.82623 574.8094 227.16998Q574.27814 227.51373 573.95 228.21686Q573.65314 228.85748 573.54376 229.90436Q573.4344 230.95123 573.4344 232.20123Q573.4344 233.57623 573.52814 234.49811Q573.6375 235.41998 573.95 236.15436Q574.23126 236.82623 574.7625 237.20123Q575.3094 237.56061 576.1844 237.56061Q577.0125 237.56061 577.54376 237.21686Q578.09064 236.87311 578.40314 236.16998Z" fill-rule="nonzero"/><path fill="#9e9e9e" d="M531.98126 264.73248L524.8875 264.73248L524.8875 263.38873L527.6219 263.38873L527.6219 254.62311L524.8875 254.62311L524.8875 253.43561Q525.45 253.43561 526.075 253.34186Q526.71564 253.24811 527.04376 253.07623Q527.45 252.84186 527.66876 252.51373Q527.90314 252.16998 527.95 251.60748L529.3094 251.60748L529.3094 263.38873L531.98126 263.38873L531.98126 264.73248ZM542.575 258.4356Q542.9969 258.8106 543.2625 259.38873Q543.54376 259.95123 543.54376 260.85748Q543.54376 261.7481 543.21564 262.4981Q542.8875 263.2481 542.29376 263.79498Q541.6375 264.41998 540.7469 264.71686Q539.85626 264.9981 538.79376 264.9981Q537.7 264.9981 536.6375 264.73248Q535.59064 264.48248 534.91876 264.1856L534.91876 262.34186L535.04376 262.34186Q535.79376 262.82623 536.8094 263.15436Q537.825 263.48248 538.7625 263.48248Q539.3094 263.48248 539.9344 263.29498Q540.5594 263.10748 540.95 262.7481Q541.35626 262.3731 541.54376 261.90436Q541.7469 261.4356 541.7469 260.71686Q541.7469 260.01373 541.5125 259.5606Q541.29376 259.09186 540.90314 258.84186Q540.5125 258.5606 539.95 258.46686Q539.3875 258.35748 538.73126 258.35748L537.9344 258.35748L537.9344 256.90436L538.5594 256.90436Q539.8875 256.90436 540.6844 256.34186Q541.48126 255.77936 541.48126 254.71686Q541.48126 254.23248 541.27814 253.88873Q541.075 253.52936 540.71564 253.29498Q540.34064 253.07623 539.90314 252.98248Q539.48126 252.88873 538.9344 252.88873Q538.10626 252.88873 537.15314 253.20123Q536.21564 253.49811 535.3875 254.02936L535.29376 254.02936L535.29376 252.20123Q535.91876 251.88873 536.95 251.63873Q537.9969 251.37311 538.98126 251.37311Q539.9344 251.37311 540.66876 251.54498Q541.40314 251.71686 541.98126 252.10748Q542.6219 252.52936 542.9344 253.13873Q543.2625 253.73248 543.2625 254.52936Q543.2625 255.62311 542.4969 256.4356Q541.73126 257.2481 540.6844 257.45123L540.6844 257.57623Q541.10626 257.65436 541.65314 257.8731Q542.2 258.09186 542.575 258.4356ZM548.77814 264.73248L546.66876 264.73248L546.66876 262.23248L548.77814 262.23248L548.77814 264.73248ZM561.91876 260.48248Q561.91876 262.48248 560.60626 263.7481Q559.29376 264.9981 557.3875 264.9981Q556.41876 264.9981 555.6219 264.70123Q554.84064 264.40436 554.23126 263.8106Q553.46564 263.09186 553.0594 261.88873Q552.65314 260.6856 552.65314 258.98248Q552.65314 257.2481 553.02814 255.90436Q553.40314 254.56061 554.21564 253.51373Q554.9969 252.51373 556.21564 251.96686Q557.4344 251.40436 559.0594 251.40436Q559.575 251.40436 559.91876 251.45123Q560.27814 251.48248 560.6375 251.60748L560.6375 253.27936L560.5594 253.27936Q560.3094 253.15436 559.8094 253.02936Q559.3094 252.90436 558.79376 252.90436Q556.90314 252.90436 555.77814 254.09186Q554.65314 255.27936 554.48126 257.29498Q555.21564 256.84186 555.91876 256.60748Q556.6375 256.3731 557.59064 256.3731Q558.41876 256.3731 559.0594 256.52936Q559.7 256.6856 560.35626 257.15436Q561.1375 257.6856 561.52814 258.4981Q561.91876 259.3106 561.91876 260.48248ZM560.1375 260.5606Q560.1375 259.73248 559.8875 259.20123Q559.65314 258.66998 559.09064 258.27936Q558.7 257.9981 558.2 257.90436Q557.71564 257.8106 557.16876 257.8106Q556.41876 257.8106 555.77814 257.9981Q555.1375 258.16998 554.46564 258.52936Q554.45 258.73248 554.4344 258.91998Q554.4344 259.09186 554.4344 259.35748Q554.4344 260.7481 554.71564 261.5606Q554.9969 262.35748 555.4969 262.82623Q555.90314 263.21686 556.3719 263.40436Q556.84064 263.57623 557.40314 263.57623Q558.66876 263.57623 559.40314 262.79498Q560.1375 262.01373 560.1375 260.5606ZM570.21564 255.27936Q570.21564 257.2481 569.3875 258.20123Q568.5594 259.15436 566.9969 259.15436Q565.3875 259.15436 564.575 258.20123Q563.7625 257.2481 563.7625 255.27936Q563.7625 253.31061 564.59064 252.35748Q565.4344 251.40436 566.9969 251.40436Q568.59064 251.40436 569.40314 252.37311Q570.21564 253.32623 570.21564 255.27936ZM576.29376 251.63873L569.4344 264.73248L567.98126 264.73248L574.84064 251.63873L576.29376 251.63873ZM580.5125 261.10748Q580.5125 263.07623 579.66876 264.02936Q578.84064 264.98248 577.27814 264.98248Q575.6844 264.98248 574.8719 264.02936Q574.0594 263.0606 574.0594 261.10748Q574.0594 259.13873 574.8875 258.1856Q575.71564 257.23248 577.27814 257.23248Q578.8719 257.23248 579.6844 258.1856Q580.5125 259.13873 580.5125 261.10748ZM568.65314 255.27936Q568.65314 253.76373 568.2625 253.16998Q567.8719 252.56061 566.9969 252.56061Q566.09064 252.56061 565.7 253.16998Q565.325 253.76373 565.325 255.27936Q565.325 256.8106 565.7 257.40436Q566.09064 257.9981 566.9969 257.9981Q567.8719 257.9981 568.2625 257.40436Q568.65314 256.8106 568.65314 255.27936ZM578.95 261.10748Q578.95 259.59186 578.5594 258.9981Q578.16876 258.38873 577.29376 258.38873Q576.3875 258.38873 575.9969 258.9981Q575.6219 259.59186 575.6219 261.10748Q575.6219 262.63873 575.9969 263.23248Q576.3875 263.8106 577.29376 263.8106Q578.16876 263.8106 578.5594 263.23248Q578.95 262.63873 578.95 261.10748Z" fill-rule="nonzero"/><path stroke="#757575" stroke-width="1.0" stroke-linecap="butt" d="M581.45 244.23248L453.76666 244.23248L434.69202 244.23248" fill-rule="nonzero"/><path fill="#9e9e9e" d="M436.69202 244.23248C436.69202 243.12791 435.7966 242.23248 434.69202 242.23248C433.58746 242.23248 432.69202 243.12791 432.69202 244.23248C432.69202 245.33705 433.58746 246.23248 434.69202 246.23248C435.7966 246.23248 436.69202 245.33705 436.69202 244.23248" fill-rule="nonzero"/><path fill="#75a5b4" d="M29.1125 38.378124Q28.159374 39.01875 27.128124 39.284374Q26.096874 39.55 24.58125 39.55L19.2375 39.55L22.58125 25.003124L26.76875 25.003124Q28.3625 25.003124 29.128124 25.1125Q29.909374 25.221874 30.55 25.6125Q31.096874 25.940624 31.3625 26.45625Q31.628124 26.971874 31.628124 27.596874Q31.628124 28.8625 30.909374 29.83125Q30.20625 30.784374 28.940624 31.315624L28.940624 31.39375Q30.1125 31.659374 30.721874 32.378124Q31.346874 33.096874 31.346874 34.2375Q31.346874 35.471874 30.721874 36.58125Q30.1125 37.690624 29.1125 38.378124ZM29.534374 28.128124Q29.534374 27.721874 29.39375 27.45625Q29.253124 27.190624 29.003124 27.003124Q28.596874 26.7375 27.971874 26.675Q27.3625 26.596874 26.378124 26.596874L24.175 26.596874L23.175 30.909374L25.721874 30.909374Q26.565624 30.909374 27.190624 30.784374Q27.815624 30.659374 28.284374 30.39375Q28.878124 30.05 29.20625 29.409374Q29.534374 28.753124 29.534374 28.128124ZM29.315624 34.378124Q29.315624 33.83125 29.128124 33.503124Q28.940624 33.159374 28.45625 32.8625Q28.065624 32.6125 27.45625 32.534374Q26.846874 32.45625 25.76875 32.45625L22.83125 32.45625L21.55 37.971874L24.221874 37.971874Q25.51875 37.971874 26.33125 37.83125Q27.14375 37.690624 27.7375 37.315624Q28.51875 36.8625 28.909374 36.065624Q29.315624 35.26875 29.315624 34.378124ZM41.925 32.909374Q41.971874 32.628124 41.9875 32.440624Q42.01875 32.2375 42.01875 32.003124Q42.01875 30.95625 41.440624 30.378124Q40.878124 29.784374 39.6125 29.784374Q38.221874 29.784374 37.14375 30.64375Q36.08125 31.503124 35.690624 32.909374L41.925 32.909374ZM38.253124 39.8Q35.9875 39.8 34.690624 38.7375Q33.409374 37.675 33.409374 35.628124Q33.409374 32.628124 35.3 30.4875Q37.20625 28.33125 39.9875 28.33125Q41.846874 28.33125 42.83125 29.26875Q43.815624 30.190624 43.815624 31.846874Q43.815624 32.14375 43.7375 32.784374Q43.659374 33.409374 43.471874 34.253124L35.425 34.253124Q35.378124 34.534374 35.346874 34.815624Q35.33125 35.08125 35.33125 35.315624Q35.33125 36.690624 36.159374 37.4875Q37.003124 38.26875 38.55 38.26875Q39.628124 38.26875 40.753124 37.846874Q41.89375 37.425 42.675 36.909374L42.76875 36.909374L42.378124 38.878124Q41.89375 39.065624 41.503124 39.20625Q41.1125 39.346874 40.503124 39.503124Q39.89375 39.64375 39.425 39.721874Q38.95625 39.8 38.253124 39.8ZM53.284374 28.64375L52.95625 30.128124L49.159374 30.128124L47.9875 35.159374Q47.89375 35.534374 47.815624 36.034374Q47.7375 36.51875 47.7375 36.815624Q47.7375 37.534374 48.096874 37.878124Q48.45625 38.221874 49.440624 38.221874Q49.83125 38.221874 50.378124 38.08125Q50.940624 37.940624 51.128124 37.8625L51.2375 37.8625L50.89375 39.45625Q50.346874 39.596874 49.721874 39.675Q49.096874 39.76875 48.628124 39.76875Q47.26875 39.76875 46.534374 39.175Q45.8 38.58125 45.8 37.3Q45.8 36.9875 45.846874 36.690624Q45.89375 36.378124 45.971874 35.9875L47.33125 30.128124L46.08125 30.128124L46.409374 28.64375L47.659374 28.64375L48.39375 25.503124L50.221874 25.503124L49.4875 28.64375L53.284374 28.64375ZM61.08125 33.8Q59.58125 33.8625 58.409374 34.034374Q57.253124 34.190624 56.4875 34.51875Q55.690624 34.846874 55.284374 35.39375Q54.878124 35.940624 54.878124 36.76875Q54.878124 37.471874 55.346874 37.846874Q55.83125 38.20625 56.83125 38.20625Q57.721874 38.20625 58.64375 37.815624Q59.565624 37.425 60.378124 36.8625L61.08125 33.8ZM60.01875 38.39375Q59.753124 38.55 59.3 38.83125Q58.846874 39.1125 58.378124 39.33125Q57.878124 39.55 57.26875 39.690624Q56.659374 39.846874 55.846874 39.846874Q54.55 39.846874 53.7375 39.096874Q52.925 38.33125 52.925 37.1125Q52.925 35.815624 53.503124 34.925Q54.08125 34.034374 55.190624 33.471874Q56.3 32.909374 57.846874 32.659374Q59.409374 32.409374 61.409374 32.346874Q61.471874 32.08125 61.503124 31.878124Q61.55 31.675 61.55 31.45625Q61.55 30.9875 61.3625 30.70625Q61.175 30.409374 60.83125 30.2375Q60.4875 30.05 60.034374 29.9875Q59.58125 29.925 59.034374 29.925Q58.20625 29.925 57.14375 30.20625Q56.08125 30.471874 55.409374 30.7375L55.315624 30.7375L55.675 28.89375Q56.2375 28.753124 57.3 28.565624Q58.378124 28.378124 59.3625 28.378124Q61.39375 28.378124 62.409374 29.01875Q63.425 29.64375 63.425 31.01875Q63.425 31.284374 63.378124 31.58125Q63.346874 31.878124 63.284374 32.14375L61.58125 39.55L59.753124 39.55L60.01875 38.39375ZM85.59688 26.659374L80.40938 26.659374L77.425 39.55L75.47188 39.55L78.45625 26.659374L73.26875 26.659374L73.64375 25.003124L85.97188 25.003124L85.59688 26.659374ZM92.925 32.909374Q92.97188 32.628124 92.9875 32.440624Q93.01875 32.2375 93.01875 32.003124Q93.01875 30.95625 92.44063 30.378124Q91.87813 29.784374 90.6125 29.784374Q89.22188 29.784374 88.14375 30.64375Q87.08125 31.503124 86.69063 32.909374L92.925 32.909374ZM89.25313 39.8Q86.9875 39.8 85.69063 38.7375Q84.40938 37.675 84.40938 35.628124Q84.40938 32.628124 86.3 30.4875Q88.20625 28.33125 90.9875 28.33125Q92.84688 28.33125 93.83125 29.26875Q94.81563 30.190624 94.81563 31.846874Q94.81563 32.14375 94.7375 32.784374Q94.65938 33.409374 94.47188 34.253124L86.425 34.253124Q86.37813 34.534374 86.34688 34.815624Q86.33125 35.08125 86.33125 35.315624Q86.33125 36.690624 87.15938 37.4875Q88.00313 38.26875 89.55 38.26875Q90.62813 38.26875 91.75313 37.846874Q92.89375 37.425 93.675 36.909374L93.76875 36.909374L93.37813 38.878124Q92.89375 39.065624 92.50313 39.20625Q92.1125 39.346874 91.50313 39.503124Q90.89375 39.64375 90.425 39.721874Q89.95625 39.8 89.25313 39.8ZM99.50313 39.815624Q98.28438 39.815624 97.31563 39.51875Q96.3625 39.20625 95.72188 38.8625L96.12813 36.89375L96.22188 36.89375Q96.425 37.065624 96.75313 37.315624Q97.08125 37.55 97.59688 37.784374Q98.05 38.003124 98.64375 38.175Q99.2375 38.33125 99.90938 38.33125Q101.28438 38.33125 102.06563 37.83125Q102.84688 37.315624 102.84688 36.33125Q102.84688 35.815624 102.44063 35.534374Q102.05 35.253124 101.3 35.08125Q100.90938 34.9875 100.37813 34.878124Q99.84688 34.76875 99.3 34.628124Q98.15938 34.3 97.6125 33.690624Q97.06563 33.08125 97.06563 32.20625Q97.06563 31.440624 97.39375 30.784374Q97.72188 30.1125 98.37813 29.565624Q99.00313 29.034374 99.97188 28.70625Q100.94063 28.378124 102.12813 28.378124Q103.09688 28.378124 104.06563 28.628124Q105.05 28.8625 105.65938 29.221874L105.26875 31.096874L105.175 31.096874Q105.01875 30.971874 104.69063 30.76875Q104.37813 30.55 103.89375 30.315624Q103.47188 30.128124 102.90938 30.003124Q102.34688 29.8625 101.7375 29.8625Q100.51875 29.8625 99.75313 30.378124Q99.00313 30.89375 99.00313 31.76875Q99.00313 32.26875 99.3625 32.596874Q99.7375 32.925 100.50313 33.096874Q100.9875 33.221874 101.50313 33.33125Q102.01875 33.425 102.51875 33.55Q103.64375 33.83125 104.20625 34.425Q104.78438 35.01875 104.78438 35.909374Q104.78438 36.675 104.425 37.39375Q104.08125 38.096874 103.40938 38.628124Q102.70625 39.190624 101.72188 39.503124Q100.7375 39.815624 99.50313 39.815624ZM114.28438 28.64375L113.95625 30.128124L110.15938 30.128124L108.9875 35.159374Q108.89375 35.534374 108.81563 36.034374Q108.7375 36.51875 108.7375 36.815624Q108.7375 37.534374 109.09688 37.878124Q109.45625 38.221874 110.44063 38.221874Q110.83125 38.221874 111.37813 38.08125Q111.94063 37.940624 112.12813 37.8625L112.2375 37.8625L111.89375 39.45625Q111.34688 39.596874 110.72188 39.675Q110.09688 39.76875 109.62813 39.76875Q108.26875 39.76875 107.53438 39.175Q106.8 38.58125 106.8 37.3Q106.8 36.9875 106.84688 36.690624Q106.89375 36.378124 106.97188 35.9875L108.33125 30.128124L107.08125 30.128124L107.40938 28.64375L108.65938 28.64375L109.39375 25.503124L111.22188 25.503124L110.4875 28.64375L114.28438 28.64375ZM131.22188 28.628124Q131.22188 28.096874 131.06563 27.753124Q130.90938 27.39375 130.59688 27.14375Q130.22188 26.83125 129.675 26.721874Q129.14375 26.596874 128.3625 26.596874L126.175 26.596874L124.87813 32.20625L126.925 32.20625Q127.87813 32.20625 128.58125 32.034374Q129.28438 31.846874 129.8625 31.409374Q130.51875 30.925 130.8625 30.190624Q131.22188 29.45625 131.22188 28.628124ZM133.39375 39.55L131.1125 39.55L127.28438 33.7375L124.51875 33.7375L123.19063 39.55L121.2375 39.55L124.58125 25.003124L128.55 25.003124Q129.87813 25.003124 130.70625 25.175Q131.53438 25.346874 132.15938 25.8Q132.70625 26.20625 133.01875 26.76875Q133.33125 27.33125 133.33125 28.175Q133.33125 30.003124 132.19063 31.378124Q131.05 32.7375 129.20625 33.284374L133.39375 39.55ZM143.925 32.909374Q143.97188 32.628124 143.9875 32.440624Q144.01875 32.2375 144.01875 32.003124Q144.01875 30.95625 143.44063 30.378124Q142.87813 29.784374 141.6125 29.784374Q140.22188 29.784374 139.14375 30.64375Q138.08125 31.503124 137.69063 32.909374L143.925 32.909374ZM140.25313 39.8Q137.9875 39.8 136.69063 38.7375Q135.40938 37.675 135.40938 35.628124Q135.40938 32.628124 137.3 30.4875Q139.20625 28.33125 141.9875 28.33125Q143.84688 28.33125 144.83125 29.26875Q145.81563 30.190624 145.81563 31.846874Q145.81563 32.14375 145.7375 32.784374Q145.65938 33.409374 145.47188 34.253124L137.425 34.253124Q137.37813 34.534374 137.34688 34.815624Q137.33125 35.08125 137.33125 35.315624Q137.33125 36.690624 138.15938 37.4875Q139.00313 38.26875 140.55 38.26875Q141.62813 38.26875 142.75313 37.846874Q143.89375 37.425 144.675 36.909374L144.76875 36.909374L144.37813 38.878124Q143.89375 39.065624 143.50313 39.20625Q143.1125 39.346874 142.50313 39.503124Q141.89375 39.64375 141.425 39.721874Q140.95625 39.8 140.25313 39.8ZM150.50313 39.815624Q149.28438 39.815624 148.31563 39.51875Q147.3625 39.20625 146.72188 38.8625L147.12813 36.89375L147.22188 36.89375Q147.425 37.065624 147.75313 37.315624Q148.08125 37.55 148.59688 37.784374Q149.05 38.003124 149.64375 38.175Q150.2375 38.33125 150.90938 38.33125Q152.28438 38.33125 153.06563 37.83125Q153.84688 37.315624 153.84688 36.33125Q153.84688 35.815624 153.44063 35.534374Q153.05 35.253124 152.3 35.08125Q151.90938 34.9875 151.37813 34.878124Q150.84688 34.76875 150.3 34.628124Q149.15938 34.3 148.6125 33.690624Q148.06563 33.08125 148.06563 32.20625Q148.06563 31.440624 148.39375 30.784374Q148.72188 30.1125 149.37813 29.565624Q150.00313 29.034374 150.97188 28.70625Q151.94063 28.378124 153.12813 28.378124Q154.09688 28.378124 155.06563 28.628124Q156.05 28.8625 156.65938 29.221874L156.26875 31.096874L156.175 31.096874Q156.01875 30.971874 155.69063 30.76875Q155.37813 30.55 154.89375 30.315624Q154.47188 30.128124 153.90938 30.003124Q153.34688 29.8625 152.7375 29.8625Q151.51875 29.8625 150.75313 30.378124Q150.00313 30.89375 150.00313 31.76875Q150.00313 32.26875 150.3625 32.596874Q150.7375 32.925 151.50313 33.096874Q151.9875 33.221874 152.50313 33.33125Q153.01875 33.425 153.51875 33.55Q154.64375 33.83125 155.20625 34.425Q155.78438 35.01875 155.78438 35.909374Q155.78438 36.675 155.425 37.39375Q155.08125 38.096874 154.40938 38.628124Q153.70625 39.190624 152.72188 39.503124Q151.7375 39.815624 150.50313 39.815624ZM168.65938 28.64375L166.14375 39.55L164.3 39.55L164.58125 38.33125Q163.55 39.05 162.64375 39.45625Q161.7375 39.846874 160.7375 39.846874Q159.33125 39.846874 158.53438 39.14375Q157.7375 38.440624 157.7375 37.08125Q157.7375 36.753124 157.78438 36.440624Q157.83125 36.128124 157.90938 35.721874L159.53438 28.64375L161.37813 28.64375L159.94063 34.846874Q159.84688 35.2375 159.76875 35.721874Q159.69063 36.20625 159.69063 36.4875Q159.69063 37.33125 160.1125 37.753124Q160.55 38.175 161.56563 38.175Q162.3 38.175 163.22188 37.753124Q164.15938 37.33125 164.95625 36.784374L166.83125 28.64375L168.65938 28.64375ZM175.47188 24.346874L171.95625 39.55L170.1125 39.55L173.62813 24.346874L175.47188 24.346874ZM183.28438 28.64375L182.95625 30.128124L179.15938 30.128124L177.9875 35.159374Q177.89375 35.534374 177.81563 36.034374Q177.7375 36.51875 177.7375 36.815624Q177.7375 37.534374 178.09688 37.878124Q178.45625 38.221874 179.44063 38.221874Q179.83125 38.221874 180.37813 38.08125Q180.94063 37.940624 181.12813 37.8625L181.2375 37.8625L180.89375 39.45625Q180.34688 39.596874 179.72188 39.675Q179.09688 39.76875 178.62813 39.76875Q177.26875 39.76875 176.53438 39.175Q175.8 38.58125 175.8 37.3Q175.8 36.9875 175.84688 36.690624Q175.89375 36.378124 175.97188 35.9875L177.33125 30.128124L176.08125 30.128124L176.40938 28.64375L177.65938 28.64375L178.39375 25.503124L180.22188 25.503124L179.4875 28.64375L183.28438 28.64375ZM186.50313 39.815624Q185.28438 39.815624 184.31563 39.51875Q183.3625 39.20625 182.72188 38.8625L183.12813 36.89375L183.22188 36.89375Q183.425 37.065624 183.75313 37.315624Q184.08125 37.55 184.59688 37.784374Q185.05 38.003124 185.64375 38.175Q186.2375 38.33125 186.90938 38.33125Q188.28438 38.33125 189.06563 37.83125Q189.84688 37.315624 189.84688 36.33125Q189.84688 35.815624 189.44063 35.534374Q189.05 35.253124 188.3 35.08125Q187.90938 34.9875 187.37813 34.878124Q186.84688 34.76875 186.3 34.628124Q185.15938 34.3 184.6125 33.690624Q184.06563 33.08125 184.06563 32.20625Q184.06563 31.440624 184.39375 30.784374Q184.72188 30.1125 185.37813 29.565624Q186.00313 29.034374 186.97188 28.70625Q187.94063 28.378124 189.12813 28.378124Q190.09688 28.378124 191.06563 28.628124Q192.05 28.8625 192.65938 29.221874L192.26875 31.096874L192.175 31.096874Q192.01875 30.971874 191.69063 30.76875Q191.37813 30.55 190.89375 30.315624Q190.47188 30.128124 189.90938 30.003124Q189.34688 29.8625 188.7375 29.8625Q187.51875 29.8625 186.75313 30.378124Q186.00313 30.89375 186.00313 31.76875Q186.00313 32.26875 186.3625 32.596874Q186.7375 32.925 187.50313 33.096874Q187.9875 33.221874 188.50313 33.33125Q189.01875 33.425 189.51875 33.55Q190.64375 33.83125 191.20625 34.425Q191.78438 35.01875 191.78438 35.909374Q191.78438 36.675 191.425 37.39375Q191.08125 38.096874 190.40938 38.628124Q189.70625 39.190624 188.72188 39.503124Q187.7375 39.815624 186.50313 39.815624ZM198.89375 31.425L196.53438 31.425L197.175 28.64375L199.53438 28.64375L198.89375 31.425ZM197.01875 39.55L194.65938 39.55L195.3 36.76875L197.65938 36.76875L197.01875 39.55ZM222.20625 39.55L220.25313 39.55L223.12813 27.190624L217.20625 35.55L216.06563 35.55L214.00313 26.815624L211.06563 39.55L209.2375 39.55L212.59688 25.003124L215.25313 25.003124L217.20625 33.096874L222.87813 25.003124L225.56563 25.003124L222.20625 39.55ZM234.08125 33.8Q232.58125 33.8625 231.40938 34.034374Q230.25313 34.190624 229.4875 34.51875Q228.69063 34.846874 228.28438 35.39375Q227.87813 35.940624 227.87813 36.76875Q227.87813 37.471874 228.34688 37.846874Q228.83125 38.20625 229.83125 38.20625Q230.72188 38.20625 231.64375 37.815624Q232.56563 37.425 233.37813 36.8625L234.08125 33.8ZM233.01875 38.39375Q232.75313 38.55 232.3 38.83125Q231.84688 39.1125 231.37813 39.33125Q230.87813 39.55 230.26875 39.690624Q229.65938 39.846874 228.84688 39.846874Q227.55 39.846874 226.7375 39.096874Q225.925 38.33125 225.925 37.1125Q225.925 35.815624 226.50313 34.925Q227.08125 34.034374 228.19063 33.471874Q229.3 32.909374 230.84688 32.659374Q232.40938 32.409374 234.40938 32.346874Q234.47188 32.08125 234.50313 31.878124Q234.55 31.675 234.55 31.45625Q234.55 30.9875 234.3625 30.70625Q234.175 30.409374 233.83125 30.2375Q233.4875 30.05 233.03438 29.9875Q232.58125 29.925 232.03438 29.925Q231.20625 29.925 230.14375 30.20625Q229.08125 30.471874 228.40938 30.7375L228.31563 30.7375L228.675 28.89375Q229.2375 28.753124 230.3 28.565624Q231.37813 28.378124 232.3625 28.378124Q234.39375 28.378124 235.40938 29.01875Q236.425 29.64375 236.425 31.01875Q236.425 31.284374 236.37813 31.58125Q236.34688 31.878124 236.28438 32.14375L234.58125 39.55L232.75313 39.55L233.01875 38.39375ZM240.06563 43.58125L238.05 43.58125L241.22188 38.909374L239.25313 28.64375L241.12813 28.64375L242.675 36.753124L247.89375 28.64375L249.89375 28.64375L240.06563 43.58125ZM257.14374 34.065624L251.05 34.065624L251.47188 32.3L257.5656 32.3L257.14374 34.065624ZM264.26874 39.815624Q262.84686 39.815624 261.5656 39.51875Q260.28436 39.221874 259.0656 38.596874L259.53436 36.378124L259.65936 36.378124Q260.59686 37.26875 261.95624 37.753124Q263.33124 38.221874 264.59686 38.221874Q266.675 38.221874 267.78436 37.39375Q268.89374 36.565624 268.89374 35.284374Q268.89374 34.6125 268.4875 34.175Q268.09686 33.721874 267.34686 33.503124Q266.70624 33.33125 265.83124 33.175Q264.95624 33.003124 264.15936 32.815624Q262.6281 32.471874 261.78436 31.64375Q260.95624 30.815624 260.95624 29.58125Q260.95624 27.503124 262.70624 26.128124Q264.47186 24.7375 267.26874 24.7375Q268.8 24.7375 270.03436 25.065624Q271.28436 25.378124 272.1906 25.815624L271.7375 27.89375L271.6125 27.89375Q270.90936 27.253124 269.6281 26.8Q268.34686 26.33125 266.925 26.33125Q265.15936 26.33125 264.09686 27.1125Q263.03436 27.89375 263.03436 29.096874Q263.03436 29.7375 263.40936 30.2375Q263.8 30.721874 264.76874 30.971874Q265.39374 31.1125 266.425 31.33125Q267.47186 31.534374 268.175 31.721874Q269.55 32.096874 270.26874 32.846874Q270.9875 33.596874 270.9875 34.7375Q270.9875 35.70625 270.51874 36.659374Q270.05 37.596874 269.22186 38.26875Q268.3156 38.9875 267.1125 39.409374Q265.90936 39.815624 264.26874 39.815624ZM281.925 32.909374Q281.97186 32.628124 281.9875 32.440624Q282.01874 32.2375 282.01874 32.003124Q282.01874 30.95625 281.4406 30.378124Q280.8781 29.784374 279.6125 29.784374Q278.22186 29.784374 277.14374 30.64375Q276.08124 31.503124 275.6906 32.909374L281.925 32.909374ZM278.2531 39.8Q275.9875 39.8 274.6906 38.7375Q273.40936 37.675 273.40936 35.628124Q273.40936 32.628124 275.3 30.4875Q277.20624 28.33125 279.9875 28.33125Q281.84686 28.33125 282.83124 29.26875Q283.8156 30.190624 283.8156 31.846874Q283.8156 32.14375 283.7375 32.784374Q283.65936 33.409374 283.47186 34.253124L275.425 34.253124Q275.3781 34.534374 275.34686 34.815624Q275.33124 35.08125 275.33124 35.315624Q275.33124 36.690624 276.15936 37.4875Q277.0031 38.26875 278.55 38.26875Q279.6281 38.26875 280.7531 37.846874Q281.89374 37.425 282.675 36.909374L282.76874 36.909374L282.3781 38.878124Q281.89374 39.065624 281.5031 39.20625Q281.1125 39.346874 280.5031 39.503124Q279.89374 39.64375 279.425 39.721874Q278.95624 39.8 278.2531 39.8ZM296.175 32.08125Q296.175 33.70625 295.675 35.14375Q295.175 36.565624 294.34686 37.55Q293.5031 38.58125 292.39374 39.175Q291.28436 39.76875 290.01874 39.76875Q289.14374 39.76875 288.39374 39.565624Q287.65936 39.3625 287.0656 38.9875L286.0031 43.58125L284.175 43.58125L287.6125 28.64375L289.45624 28.64375L289.1906 29.784374Q290.09686 29.14375 290.97186 28.7375Q291.8625 28.33125 292.925 28.33125Q294.51874 28.33125 295.34686 29.33125Q296.175 30.315624 296.175 32.08125ZM294.2531 32.440624Q294.2531 31.284374 293.7375 30.659374Q293.2375 30.01875 292.1281 30.01875Q291.3156 30.01875 290.4406 30.425Q289.58124 30.815624 288.83124 31.33125L287.40936 37.503124Q288.03436 37.846874 288.6125 38.01875Q289.1906 38.175 290.0031 38.175Q291.01874 38.175 291.8156 37.690624Q292.6281 37.20625 293.15936 36.425Q293.70624 35.596874 293.97186 34.596874Q294.2531 33.596874 294.2531 32.440624ZM305.28436 28.64375L304.95624 30.128124L301.15936 30.128124L299.9875 35.159374Q299.89374 35.534374 299.8156 36.034374Q299.7375 36.51875 299.7375 36.815624Q299.7375 37.534374 300.09686 37.878124Q300.45624 38.221874 301.4406 38.221874Q301.83124 38.221874 302.3781 38.08125Q302.9406 37.940624 303.1281 37.8625L303.2375 37.8625L302.89374 39.45625Q302.34686 39.596874 301.72186 39.675Q301.09686 39.76875 300.6281 39.76875Q299.26874 39.76875 298.53436 39.175Q297.8 38.58125 297.8 37.3Q297.8 36.9875 297.84686 36.690624Q297.89374 36.378124 297.97186 35.9875L299.33124 30.128124L298.08124 30.128124L298.40936 28.64375L299.65936 28.64375L300.39374 25.503124L302.22186 25.503124L301.4875 28.64375L305.28436 28.64375ZM313.925 32.909374Q313.97186 32.628124 313.9875 32.440624Q314.01874 32.2375 314.01874 32.003124Q314.01874 30.95625 313.4406 30.378124Q312.8781 29.784374 311.6125 29.784374Q310.22186 29.784374 309.14374 30.64375Q308.08124 31.503124 307.6906 32.909374L313.925 32.909374ZM310.2531 39.8Q307.9875 39.8 306.6906 38.7375Q305.40936 37.675 305.40936 35.628124Q305.40936 32.628124 307.3 30.4875Q309.20624 28.33125 311.9875 28.33125Q313.84686 28.33125 314.83124 29.26875Q315.8156 30.190624 315.8156 31.846874Q315.8156 32.14375 315.7375 32.784374Q315.65936 33.409374 315.47186 34.253124L307.425 34.253124Q307.3781 34.534374 307.34686 34.815624Q307.33124 35.08125 307.33124 35.315624Q307.33124 36.690624 308.15936 37.4875Q309.0031 38.26875 310.55 38.26875Q311.6281 38.26875 312.7531 37.846874Q313.89374 37.425 314.675 36.909374L314.76874 36.909374L314.3781 38.878124Q313.89374 39.065624 313.5031 39.20625Q313.1125 39.346874 312.5031 39.503124Q311.89374 39.64375 311.425 39.721874Q310.95624 39.8 310.2531 39.8ZM334.83124 31.05Q334.83124 31.378124 334.78436 31.7375Q334.7375 32.096874 334.65936 32.471874L333.01874 39.55L331.175 39.55L332.6125 33.33125Q332.7375 32.815624 332.8 32.378124Q332.8781 31.940624 332.8781 31.565624Q332.8781 30.815624 332.5031 30.425Q332.14374 30.01875 331.09686 30.01875Q330.3156 30.01875 329.45624 30.45625Q328.59686 30.878124 327.7531 31.45625Q327.7375 31.690624 327.6906 32.003124Q327.64374 32.315624 327.58124 32.565624L325.97186 39.55L324.14374 39.55L325.58124 33.33125Q325.70624 32.7375 325.78436 32.346874Q325.8625 31.95625 325.8625 31.565624Q325.8625 30.675 325.3625 30.346874Q324.8781 30.01875 324.05 30.01875Q323.47186 30.01875 322.7375 30.315624Q322.01874 30.6125 320.8156 31.409374L318.9406 39.55L317.09686 39.55L319.6125 28.64375L321.45624 28.64375L321.175 29.846874Q322.1906 29.14375 323.0656 28.7375Q323.9406 28.33125 324.90936 28.33125Q326.01874 28.33125 326.70624 28.8Q327.39374 29.26875 327.6125 30.1125Q328.90936 29.175 329.925 28.753124Q330.95624 28.33125 331.95624 28.33125Q333.39374 28.33125 334.1125 29.05Q334.83124 29.76875 334.83124 31.05ZM347.175 32.08125Q347.175 33.675 346.675 35.128124Q346.1906 36.565624 345.3625 37.596874Q344.4875 38.675 343.40936 39.26875Q342.33124 39.846874 341.03436 39.846874Q340.175 39.846874 339.40936 39.6125Q338.65936 39.39375 338.0656 39.01875L337.8156 39.55L336.09686 39.55L339.59686 24.346874L341.4406 24.346874L340.1906 29.784374Q341.09686 29.14375 341.95624 28.7375Q342.83124 28.33125 343.89374 28.33125Q345.4875 28.33125 346.33124 29.33125Q347.175 30.315624 347.175 32.08125ZM344.15936 36.471874Q344.70624 35.628124 344.97186 34.6125Q345.2531 33.596874 345.2531 32.440624Q345.2531 31.284374 344.7375 30.659374Q344.2375 30.01875 343.1281 30.01875Q342.3156 30.01875 341.4406 30.425Q340.58124 30.815624 339.83124 31.33125L338.39374 37.565624Q339.01874 37.89375 339.6125 38.08125Q340.20624 38.26875 341.01874 38.26875Q342.03436 38.26875 342.83124 37.76875Q343.64374 37.26875 344.15936 36.471874ZM356.925 32.909374Q356.97186 32.628124 356.9875 32.440624Q357.01874 32.2375 357.01874 32.003124Q357.01874 30.95625 356.4406 30.378124Q355.8781 29.784374 354.6125 29.784374Q353.22186 29.784374 352.14374 30.64375Q351.08124 31.503124 350.6906 32.909374L356.925 32.909374ZM353.2531 39.8Q350.9875 39.8 349.6906 38.7375Q348.40936 37.675 348.40936 35.628124Q348.40936 32.628124 350.3 30.4875Q352.20624 28.33125 354.9875 28.33125Q356.84686 28.33125 357.83124 29.26875Q358.8156 30.190624 358.8156 31.846874Q358.8156 32.14375 358.7375 32.784374Q358.65936 33.409374 358.47186 34.253124L350.425 34.253124Q350.3781 34.534374 350.34686 34.815624Q350.33124 35.08125 350.33124 35.315624Q350.33124 36.690624 351.15936 37.4875Q352.0031 38.26875 353.55 38.26875Q354.6281 38.26875 355.7531 37.846874Q356.89374 37.425 357.675 36.909374L357.76874 36.909374L357.3781 38.878124Q356.89374 39.065624 356.5031 39.20625Q356.1125 39.346874 355.5031 39.503124Q354.89374 39.64375 354.425 39.721874Q353.95624 39.8 353.2531 39.8ZM368.90936 30.58125L368.8156 30.58125Q368.425 30.471874 368.08124 30.440624Q367.7375 30.39375 367.26874 30.39375Q366.34686 30.39375 365.4406 30.815624Q364.53436 31.221874 363.70624 31.8L361.95624 39.55L360.09686 39.55L362.58124 28.64375L364.4406 28.64375L364.0656 30.253124Q365.3781 29.346874 366.26874 29.003124Q367.175 28.64375 368.0031 28.64375Q368.4875 28.64375 368.6906 28.675Q368.90936 28.690624 369.33124 28.753124L368.90936 30.58125ZM385.7375 39.55L375.8781 39.55L376.34686 37.503124Q377.72186 36.503124 378.675 35.8Q379.64374 35.08125 381.0031 34.003124Q383.3781 32.096874 384.3625 30.8Q385.34686 29.4875 385.34686 28.253124Q385.34686 27.3 384.65936 26.815624Q383.9875 26.33125 382.925 26.33125Q382.05 26.33125 380.925 26.659374Q379.8156 26.9875 378.7375 27.596874L378.64374 27.596874L379.03436 25.6125Q379.8156 25.26875 381.0031 24.9875Q382.20624 24.70625 383.3156 24.70625Q385.28436 24.70625 386.34686 25.565624Q387.40936 26.409374 387.40936 27.8625Q387.40936 29.440624 386.5031 30.846874Q385.6125 32.2375 383.3625 34.1125Q382.01874 35.20625 380.6125 36.253124Q379.20624 37.3 378.28436 37.940624L386.09686 37.940624L385.7375 39.55ZM400.8156 28.9875Q400.8156 30.909374 400.09686 33.534374Q399.3781 36.14375 398.3156 37.55Q397.40936 38.7375 396.3 39.3Q395.20624 39.846874 393.76874 39.846874Q391.78436 39.846874 390.8156 38.8Q389.84686 37.7375 389.84686 35.58125Q389.84686 33.83125 390.51874 31.175Q391.20624 28.51875 392.34686 27.003124Q393.22186 25.83125 394.34686 25.284374Q395.4875 24.721874 396.90936 24.721874Q398.8781 24.721874 399.84686 25.784374Q400.8156 26.83125 400.8156 28.9875ZM398.84686 28.95625Q398.84686 27.64375 398.34686 26.95625Q397.8625 26.253124 396.58124 26.253124Q395.64374 26.253124 394.925 26.675Q394.22186 27.08125 393.6125 28.1125Q392.9406 29.315624 392.3781 31.690624Q391.8156 34.065624 391.8156 35.6125Q391.8156 36.925 392.3156 37.628124Q392.8156 38.315624 394.08124 38.315624Q394.97186 38.315624 395.72186 37.89375Q396.4875 37.45625 397.05 36.45625Q397.7375 35.2375 398.28436 32.8625Q398.84686 30.471874 398.84686 28.95625ZM411.7375 39.55L401.8781 39.55L402.34686 37.503124Q403.72186 36.503124 404.675 35.8Q405.64374 35.08125 407.0031 34.003124Q409.3781 32.096874 410.3625 30.8Q411.34686 29.4875 411.34686 28.253124Q411.34686 27.3 410.65936 26.815624Q409.9875 26.33125 408.925 26.33125Q408.05 26.33125 406.925 26.659374Q405.8156 26.9875 404.7375 27.596874L404.64374 27.596874L405.03436 25.6125Q405.8156 25.26875 407.0031 24.9875Q408.20624 24.70625 409.3156 24.70625Q411.28436 24.70625 412.34686 25.565624Q413.40936 26.409374 413.40936 27.8625Q413.40936 29.440624 412.5031 30.846874Q411.6125 32.2375 409.3625 34.1125Q408.01874 35.20625 406.6125 36.253124Q405.20624 37.3 404.28436 37.940624L412.09686 37.940624L411.7375 39.55ZM426.01874 35.425L423.8625 35.425L422.90936 39.55L421.01874 39.55L421.97186 35.425L415.01874 35.425L415.53436 33.20625L424.45624 25.003124L426.26874 25.003124L424.20624 33.940624L426.3625 33.940624L426.01874 35.425ZM422.3156 33.940624L423.83124 27.378124L416.70624 33.940624L422.3156 33.940624ZM440.01874 43.58125L437.95624 43.58125Q437.0656 42.14375 436.5031 40.4875Q435.9406 38.83125 435.9406 37.01875Q435.9406 35.159374 436.3781 33.440624Q436.83124 31.721874 437.70624 30.05Q438.53436 28.471874 439.6906 27.05Q440.84686 25.628124 442.2531 24.346874L444.45624 24.346874L444.45624 24.45625Q443.34686 25.26875 442.1281 26.534374Q440.925 27.784374 439.95624 29.315624Q438.97186 30.8625 438.34686 32.7375Q437.7375 34.6125 437.7375 36.675Q437.7375 38.8 438.34686 40.534374Q438.97186 42.284374 440.01874 43.471874L440.01874 43.58125ZM455.01874 31.128124Q455.01874 31.3625 454.97186 31.76875Q454.9406 32.159374 454.8625 32.471874L453.22186 39.55L451.3781 39.55L452.8156 33.33125Q452.9406 32.815624 453.0031 32.440624Q453.0656 32.05 453.0656 31.675Q453.0656 30.846874 452.65936 30.440624Q452.2531 30.01875 451.1906 30.01875Q450.45624 30.01875 449.5656 30.425Q448.675 30.83125 447.8156 31.409374L445.9406 39.55L444.09686 39.55L446.6125 28.64375L448.45624 28.64375L448.175 29.846874Q449.22186 29.1125 450.1281 28.721874Q451.03436 28.33125 452.0031 28.33125Q453.4406 28.33125 454.22186 29.05Q455.01874 29.76875 455.01874 31.128124ZM470.9406 31.909374L459.3625 31.909374L459.3625 30.346874L470.9406 30.346874L470.9406 31.909374ZM470.9406 36.01875L459.3625 36.01875L459.3625 34.45625L470.9406 34.45625L470.9406 36.01875ZM482.7375 39.55L472.8781 39.55L473.34686 37.503124Q474.72186 36.503124 475.675 35.8Q476.64374 35.08125 478.0031 34.003124Q480.3781 32.096874 481.3625 30.8Q482.34686 29.4875 482.34686 28.253124Q482.34686 27.3 481.65936 26.815624Q480.9875 26.33125 479.925 26.33125Q479.05 26.33125 477.925 26.659374Q476.8156 26.9875 475.7375 27.596874L475.64374 27.596874L476.03436 25.6125Q476.8156 25.26875 478.0031 24.9875Q479.20624 24.70625 480.3156 24.70625Q482.28436 24.70625 483.34686 25.565624Q484.40936 26.409374 484.40936 27.8625Q484.40936 29.440624 483.5031 30.846874Q482.6125 32.2375 480.3625 34.1125Q479.01874 35.20625 477.6125 36.253124Q476.20624 37.3 475.28436 37.940624L483.09686 37.940624L482.7375 39.55ZM495.7375 39.55L485.8781 39.55L486.34686 37.503124Q487.72186 36.503124 488.675 35.8Q489.64374 35.08125 491.0031 34.003124Q493.3781 32.096874 494.3625 30.8Q495.34686 29.4875 495.34686 28.253124Q495.34686 27.3 494.65936 26.815624Q493.9875 26.33125 492.925 26.33125Q492.05 26.33125 490.925 26.659374Q489.8156 26.9875 488.7375 27.596874L488.64374 27.596874L489.03436 25.6125Q489.8156 25.26875 491.0031 24.9875Q492.20624 24.70625 493.3156 24.70625Q495.28436 24.70625 496.34686 25.565624Q497.40936 26.409374 497.40936 27.8625Q497.40936 29.440624 496.5031 30.846874Q495.6125 32.2375 493.3625 34.1125Q492.01874 35.20625 490.6125 36.253124Q489.20624 37.3 488.28436 37.940624L496.09686 37.940624L495.7375 39.55ZM506.28436 30.909374Q506.28436 32.753124 505.8156 34.51875Q505.3625 36.284374 504.51874 37.878124Q503.675 39.4875 502.5031 40.909374Q501.34686 42.346874 499.97186 43.58125L497.76874 43.58125L497.76874 43.471874Q498.89374 42.64375 500.08124 41.409374Q501.28436 40.190624 502.26874 38.6125Q503.3781 36.815624 503.925 35.01875Q504.4875 33.20625 504.4875 31.253124Q504.4875 29.175 503.8781 27.425Q503.26874 25.659374 502.20624 24.45625L502.20624 24.346874L504.26874 24.346874Q505.14374 25.76875 505.70624 27.425Q506.28436 29.08125 506.28436 30.909374Z" fill-rule="nonzero"/></svg>