<svg xmlns="http://www.w3.org/2000/svg" width="20" height="20" viewBox="0 0 20 20" fill="none">
  <g clip-path="url(#clip0_569_1677)">
    <path d="M4.65548 6.43408H0.640452C0.462258 6.43408 0.317871 6.57853 0.317871 6.75666V19.6552C0.317871 19.8334 0.462258 19.9778 0.640452 19.9778H4.65548C4.83368 19.9778 4.97806 19.8334 4.97806 19.6552V6.75666C4.97806 6.57853 4.83368 6.43408 4.65548 6.43408Z" fill="#007AFF"/>
    <path d="M2.64942 0.0219727C1.18852 0.0219727 0 1.2092 0 2.66849C0 4.12842 1.18852 5.3161 2.64942 5.3161C4.10916 5.3161 5.29671 4.12836 5.29671 2.66849C5.29677 1.2092 4.10916 0.0219727 2.64942 0.0219727Z" fill="#007AFF"/>
    <path d="M14.868 6.11377C13.2554 6.11377 12.0634 6.80699 11.3403 7.59467V6.75693C11.3403 6.5788 11.1959 6.43435 11.0177 6.43435H7.17265C6.99445 6.43435 6.85007 6.5788 6.85007 6.75693V19.6555C6.85007 19.8337 6.99445 19.9781 7.17265 19.9781H11.1789C11.3571 19.9781 11.5015 19.8337 11.5015 19.6555V13.2737C11.5015 11.1232 12.0856 10.2854 13.5847 10.2854C15.2174 10.2854 15.3471 11.6285 15.3471 13.3843V19.6556C15.3471 19.8338 15.4915 19.9782 15.6697 19.9782H19.6774C19.8556 19.9782 20 19.8338 20 19.6556V12.5805C20 9.38274 19.3903 6.11377 14.868 6.11377Z" fill="#007AFF"/>
  </g>
  <defs>
    <clipPath id="clip0_569_1677">
      <rect width="20" height="20" fill="white"/>
    </clipPath>
  </defs>
</svg>