<svg xmlns="http://www.w3.org/2000/svg" width="67" height="62" viewBox="0 0 67 62" fill="none">
  <path d="M33.5 58.125C17.2734 58.125 4.1875 46.0156 4.1875 31C4.1875 15.9844 17.2734 3.875 33.5 3.875C49.7266 3.875 62.8125 15.9844 62.8125 31C62.8125 46.0156 49.7266 58.125 33.5 58.125ZM33.5 56.1875C48.575 56.1875 60.7188 44.95 60.7188 31C60.7188 17.05 48.575 5.8125 33.5 5.8125C18.425 5.8125 6.28125 17.05 6.28125 31C6.28125 44.95 18.425 56.1875 33.5 56.1875Z" fill="white"/>
  <path d="M30.7781 39.6218C30.6734 39.5249 30.5687 39.2343 30.3594 39.0405C29.9406 39.5249 29.7312 39.9124 29.6265 40.0093C28.9984 40.8811 28.3703 41.6561 27.8469 42.2374C29.2078 42.0436 30.4641 41.6561 31.7203 41.0749C31.4062 40.6874 31.0922 40.203 30.7781 39.6218ZM24.2875 40.203C24.8109 39.5249 25.4391 38.8468 26.1719 37.7811C26.2766 37.5874 27.6375 35.8436 28.1609 35.0686C27.6375 34.003 27.114 32.6468 26.4859 30.8061C26.4859 30.7093 26.4859 30.7093 26.3812 30.6124C26.2766 30.4186 26.2766 30.2249 26.1719 30.0311C25.4391 30.3218 23.9734 30.903 23.6594 30.9999C22.6125 31.3874 21.8797 31.678 21.1469 31.9686C20.6234 32.1624 20.1 32.3561 19.6812 32.5499C17.2734 33.6155 15.8078 34.778 15.075 36.0374C16.5406 38.9436 18.8437 41.0749 21.2515 41.6561L22.5078 41.9468C23.0312 41.5593 23.6594 40.978 24.2875 40.203ZM18.0062 29.1593C18.5297 28.9655 19.0531 28.7718 19.5766 28.4811C20.3094 28.1905 21.1469 27.8999 22.1937 27.5124C22.4031 27.4155 24.1828 26.7374 24.8109 26.5436C24.0781 24.9936 23.5547 24.0249 22.8219 23.153C22.1937 22.378 21.4609 21.9905 20.6234 21.8936C20.7281 22.8624 21.0422 23.7343 21.6703 24.5093C22.4031 25.3811 22.1937 26.5436 21.3562 27.2218C20.4141 27.8999 19.1578 27.7061 18.425 26.9311C17.4828 25.8655 16.9594 24.6061 16.6453 23.3468C14.2375 25.0905 13.2953 28.0936 13.8187 31.7749C14.8656 30.7093 16.2266 29.8374 18.0062 29.1593ZM34.1281 44.2718C31.0922 46.0155 27.7422 46.4999 23.45 46.0155C22.1937 46.5968 20.9375 46.7905 19.4719 46.4999C15.075 45.628 11.6203 42.7218 10.7828 39.2343C10.5734 38.2655 10.5734 37.3936 10.6781 36.4249C8.16561 30.0311 9.21249 22.1843 15.8078 19.0843C16.1219 18.9874 16.3312 18.7936 16.6453 18.6968C17.2734 16.3718 18.6344 14.1436 20.6234 12.303C25.4391 7.74989 32.1391 7.26552 37.5828 12.1093C42.0844 16.178 42.3984 20.1499 38.839 23.5405C36.9547 25.2843 34.3375 26.7374 30.0453 28.4811L30.3594 29.353C30.3594 29.4499 30.3594 29.4499 30.4641 29.5468C30.6734 30.2249 30.9875 30.8061 31.1969 31.3874C34.8609 27.4155 38.3156 25.478 42.9219 25.478C56.7406 25.478 61.3469 40.3968 50.3547 46.9843C45.7484 49.6968 41.7703 49.8905 38.1062 47.7593C36.6406 47.0811 35.3844 45.9186 34.1281 44.2718ZM25.9625 20.6343C27.0094 21.7968 27.7422 23.0561 28.6844 24.9936C32.3484 23.4436 34.5469 22.2811 35.9078 20.9249C37.7922 19.1811 37.6875 17.5343 34.7562 15.0155C31.0922 11.7218 26.9047 12.0124 23.6594 15.1124C22.7172 15.9843 21.9844 17.0499 21.4609 18.1155C23.0312 18.3093 24.6016 19.1811 25.9625 20.6343ZM33.5 36.328C33.6047 36.4249 34.2328 37.3936 34.3375 37.6843C34.5469 37.9749 34.7562 38.2655 34.9656 38.653C35.6984 37.9749 36.3266 37.1999 37.0594 36.2311C39.8859 32.5499 44.3875 31.8718 47.3187 34.2936C50.3547 36.7155 50.0406 40.8811 46.2719 43.303C45.3297 43.8843 43.9687 43.6905 43.3406 42.8186C42.7125 41.9468 42.9219 40.6874 43.8641 40.1061C45.4344 39.0405 45.539 37.9749 44.5969 37.1999C43.55 36.328 41.9797 36.6186 40.5141 38.4593C39.4672 39.8155 38.525 40.8811 37.4781 41.9468C41.0375 46.2093 43.6547 46.6936 48.1562 43.9811C55.6937 39.5249 52.6578 29.6436 43.0265 29.6436C39.4672 29.6436 36.6406 31.4843 33.1859 35.6499C33.1859 35.8436 33.2906 36.0374 33.5 36.328Z" fill="#2F4BFF"/>
  <path d="M32.1391 40.7843L32.4531 41.1718L32.0344 41.4624C30.7781 42.1405 29.4172 42.528 27.9516 42.7218L26.6953 42.8186L27.4281 41.9468C27.9516 41.3655 28.475 40.6874 29.2078 39.7186C29.3125 39.6218 29.3125 39.6218 29.4172 39.428C29.6266 39.1374 29.6266 39.1374 29.9406 38.7499L30.3594 38.1686L30.7781 38.8468C30.9875 39.2343 31.0922 39.3311 31.1969 39.428C31.5109 39.9124 31.825 40.3968 32.1391 40.7843ZM30.3594 40.0093C30.15 40.203 30.15 40.203 30.15 40.3968C29.8359 40.8811 29.5219 41.2686 29.2078 41.6561C29.8359 41.4624 30.4641 41.2686 31.0922 40.978C30.7781 40.5905 30.5687 40.2999 30.3594 40.0093ZM22.8219 42.3343L22.6125 42.528H22.4031L21.1469 42.2374C18.6344 41.6561 16.2266 39.428 14.6562 36.4249L14.5516 36.2311L14.6562 36.0374C15.3891 34.6811 17.0641 33.4218 19.4719 32.3561C19.8906 32.1624 20.4141 31.9686 20.9375 31.7749C21.6703 31.4843 22.4031 31.1936 23.45 30.8061C23.5547 30.8061 24.7062 30.3218 24.8109 30.3218C25.3344 30.128 25.6484 30.0311 25.9625 29.9343L26.4859 29.7405L26.6953 30.2249C26.8 30.4186 26.8 30.6124 26.9047 30.8061V30.9999C27.6375 32.9374 28.1609 34.1968 28.5797 35.1655L28.6844 35.4561L28.475 35.6499C28.2656 35.9405 27.9516 36.328 27.6375 36.8124C27.3234 37.1999 26.5906 38.2655 26.4859 38.2655C25.6484 39.3311 25.125 40.1061 24.4969 40.6874C23.9734 41.2686 23.45 41.8499 22.8219 42.3343ZM23.8687 39.9124C24.3922 39.3311 25.0203 38.5561 25.7531 37.4905C25.7531 37.4905 26.5906 36.4249 26.9047 36.0374C27.2187 35.6499 27.4281 35.3593 27.6375 35.0686C27.2187 34.0999 26.6953 32.8405 26.0672 31.0968V30.903V30.8061C25.8578 30.903 25.6484 30.903 25.4391 30.9999C25.3344 30.9999 24.1828 31.4843 24.0781 31.4843C23.0312 31.8718 22.2984 32.1624 21.5656 32.453C21.0422 32.6468 20.5187 32.8405 20.1 33.0343C18.0062 33.9061 16.5406 34.9718 15.9125 36.0374C17.3781 38.7499 19.4719 40.6874 21.5656 41.1718C21.8797 41.2686 22.1937 41.2686 22.5078 41.3655C22.8219 41.0749 23.3453 40.5905 23.8687 39.9124ZM14.0281 32.0655L13.2953 32.6468L13.1906 31.7749C12.5625 27.9968 13.6094 24.7999 16.2266 22.9593L16.8547 22.4749L17.0641 23.2499C17.3781 24.5093 17.9016 25.6718 18.7391 26.6405C19.2625 27.3186 20.3094 27.4155 20.9375 26.9311C21.5656 26.4468 21.775 25.478 21.2516 24.8968C20.6234 24.1218 20.2047 23.153 20.1 22.0874V21.5061L20.7281 21.603C21.6703 21.6999 22.5078 22.1843 23.3453 23.0561C24.0781 23.928 24.7062 24.8968 25.4391 26.5436L25.6484 27.028L25.125 27.2218C24.9156 27.3186 24.4969 27.4155 23.8687 27.7061C23.7641 27.7061 22.6125 28.1905 22.5078 28.1905C21.4609 28.578 20.6234 28.8686 19.8906 29.1593C19.3672 29.353 18.8437 29.6436 18.3203 29.8374C16.5406 30.2249 15.1797 31.0968 14.0281 32.0655ZM17.7969 28.6749C18.3203 28.4811 18.8437 28.2874 19.3672 27.9968C18.7391 27.8999 18.2156 27.6093 17.9016 27.1249C17.1687 26.253 16.5406 25.1874 16.2266 24.1218C14.6562 25.6718 13.9234 27.8999 14.1328 30.7093C15.1797 29.9343 16.3312 29.2561 17.7969 28.6749ZM23.3453 26.5436C23.6594 26.4468 23.8687 26.3499 24.0781 26.253C23.45 24.9936 22.9266 24.1218 22.2984 23.4436C21.8797 22.9593 21.4609 22.6686 21.1469 22.5718C21.2516 23.153 21.5656 23.7343 21.9844 24.2186C22.7172 25.0905 22.7172 26.1561 22.0891 27.028C22.4031 26.8343 23.3453 26.5436 23.3453 26.5436ZM33.8141 43.8843L34.2328 43.6905L34.5469 44.078C35.9078 45.7249 37.0594 46.7905 38.525 47.6624C41.9797 49.6968 45.7484 49.503 50.1453 46.8874C60.7187 40.3968 56.0078 26.1561 42.9219 26.1561C38.6297 26.1561 35.2797 27.8999 31.6156 31.8718L30.9875 32.5499L30.6734 31.7749C30.4641 31.1936 30.2547 30.6124 29.9406 29.9343V29.7405L29.6266 28.8686L29.4172 28.4811L29.8359 28.2874C34.2328 26.5436 36.6406 25.0905 38.4203 23.4436C41.7703 20.2468 41.4562 16.4686 37.1641 12.6905C32.1391 8.23427 25.6484 8.42802 20.9375 12.8843C19.0531 14.628 17.6922 16.8561 17.1687 19.0843L17.0641 19.278L16.8547 19.3749C16.5406 19.4718 16.3312 19.5686 16.0172 19.7624C10.1547 22.4749 8.37499 29.6436 11.0969 36.5218V36.7155C10.8875 37.5874 10.9922 38.4593 11.2016 39.3311C11.9344 42.6249 15.2844 45.3374 19.4719 46.2093C20.7281 46.4999 21.9844 46.3061 23.1359 45.8218L23.2406 45.7249H23.45C27.6375 46.0155 30.8828 45.5311 33.8141 43.8843ZM23.5547 46.4999C22.1937 47.0811 20.8328 47.178 19.3672 46.8874C14.7609 46.0155 11.0969 42.9155 10.2594 39.2343C10.05 38.2655 10.05 37.2968 10.1547 36.4249C7.32812 29.2561 9.21249 21.603 15.5984 18.6968L16.2266 18.4061C16.8547 16.0811 18.3203 13.853 20.2047 12.0124C25.4391 7.16864 32.4531 6.97489 37.8969 11.8186C42.6078 15.9843 43.0266 20.3436 39.1531 23.928C37.2687 25.6718 34.8609 27.028 30.6734 28.8686C30.6734 28.9655 30.7781 29.1593 30.8828 29.2561L30.9875 29.4499C31.0922 29.8374 31.3016 30.2249 31.4062 30.5155C35.0703 26.7374 38.525 25.0905 42.9219 25.0905C57.0547 25.0905 62.1844 40.5905 50.6687 47.4686C45.9578 50.278 41.6656 50.5686 37.8969 48.2436C36.4312 47.3718 35.2797 46.3061 34.0234 44.853C30.9875 46.4999 27.6375 46.9843 23.5547 46.4999ZM25.5437 20.9249C24.2875 19.5686 22.8219 18.7936 21.2516 18.503L20.5187 18.4061L20.8328 17.8249C21.3562 16.6624 22.1937 15.5968 23.1359 14.7249C26.6953 11.3343 31.1969 11.2374 34.9656 14.628C38.0016 17.3405 38.3156 19.1811 36.1172 21.3124C34.6516 22.6686 32.4531 23.928 28.6844 25.478L28.1609 25.6718V25.1874C27.3234 23.2499 26.5906 22.0874 25.5437 20.9249ZM26.3812 20.3436C27.4281 21.4093 28.1609 22.6686 28.8937 24.3155C32.2437 22.8624 34.2328 21.7968 35.4891 20.5374C37.1641 18.8905 36.9547 17.6311 34.3375 15.3061C30.9875 12.303 27.1141 12.3999 23.9734 15.403C23.2406 16.0811 22.6125 16.8561 22.0891 17.728C23.6594 18.1155 25.125 18.9874 26.3812 20.3436ZM32.5578 35.8436L32.4531 35.553L32.6625 35.2624C36.3266 30.8061 39.2578 29.0624 42.9219 29.0624C52.8672 29.0624 56.4266 39.5249 48.3656 44.2718C43.55 47.178 40.6187 46.5968 36.9547 42.1405L36.6406 41.8499L36.9547 41.5593C38.0016 40.5905 38.9437 39.5249 39.9906 38.1686C41.5609 36.1343 43.4453 35.6499 44.9109 36.8124C46.1672 37.878 45.9578 39.3311 44.1781 40.4936C43.4453 40.978 43.3406 41.8499 43.7594 42.528C44.2828 43.2061 45.225 43.303 45.9578 42.9155C49.4125 40.6874 49.8312 36.9093 47.0047 34.6811C44.1781 32.453 40.0953 33.1311 37.4781 36.5218C36.7453 37.4905 36.1172 38.2655 35.3844 38.9436L34.9656 39.428L34.5469 38.8468C34.3375 38.5561 34.1281 38.2655 33.9187 37.878C33.8141 37.7811 33.7094 37.6843 33.5 37.2968C33.1859 36.8124 33.1859 36.8124 33.0812 36.6186V36.5218C32.8719 36.328 32.7672 36.0374 32.5578 35.8436ZM33.9187 36.0374C34.1281 36.328 34.1281 36.328 34.4422 36.8124C34.6516 37.1999 34.7562 37.2968 34.8609 37.3936C34.9656 37.4905 35.0703 37.6843 35.0703 37.7811C35.5937 37.1999 36.1172 36.6186 36.6406 35.9405C39.5719 32.0655 44.3875 31.1936 47.7375 33.9061C51.0875 36.6186 50.6687 41.0749 46.5859 43.6905C45.4344 44.4655 43.7594 44.1749 42.9219 43.1093C42.0844 42.0436 42.3984 40.4936 43.55 39.7186C44.8062 38.9436 44.9109 38.1686 44.1781 37.5874C43.3406 36.9093 42.0844 37.1999 40.8281 38.7499C39.8859 40.0093 38.9437 41.0749 38.0016 41.9468C41.2469 45.7249 43.55 46.0155 47.7375 43.5936C54.9609 39.2343 51.8203 30.0311 42.9219 30.0311C39.6766 30.0311 37.0594 31.678 33.7094 35.6499C33.7094 35.7468 33.8141 35.9405 33.9187 36.0374Z" fill="white"/>
</svg>