<svg xmlns="http://www.w3.org/2000/svg" width="62" height="56" viewBox="0 0 62 56" fill="none">
  <g clip-path="url(#clip0_569_2430)">
    <path d="M49.1383 0H12.8617C5.76963 0 0 5.21128 0 11.617V53.3192C0 54.7974 1.33143 56 2.96813 56C4.60483 56 5.93626 54.7974 5.93626 53.3191V11.617C5.93626 8.1678 9.04304 5.36178 12.8617 5.36178H49.1383C52.9571 5.36178 56.0637 8.16791 56.0637 11.617V53.3192C56.0637 54.7975 57.3952 56.0001 59.0319 56.0001C60.6686 56 62 54.7974 62 53.3191V11.617C62 5.21128 56.2304 0 49.1383 0ZM60.0213 53.3191C60.0213 53.812 59.5775 54.2127 59.032 54.2127C58.4863 54.2127 58.0427 53.8118 58.0427 53.3191V11.617C58.0427 7.18233 54.0483 3.57448 49.1384 3.57448H12.8617C7.95186 3.57448 3.95746 7.18233 3.95746 11.617V53.3192C3.95746 53.8121 3.51366 54.2128 2.96813 54.2128C2.42248 54.2128 1.97879 53.812 1.97879 53.3192V11.617C1.97879 6.19686 6.86081 1.7873 12.8617 1.7873H49.1383C55.1392 1.7873 60.0212 6.19686 60.0212 11.617V53.3191H60.0213Z" fill="white"/>
    <path d="M47.5718 34.1787V8.04252C47.5718 7.54902 47.1288 7.14893 46.5825 7.14893C46.0361 7.14893 45.5931 7.54902 45.5931 8.04252V34.1787C43.8329 34.4356 42.3201 35.3658 41.3884 36.6667C40.4567 35.3658 38.9439 34.4356 37.1837 34.1787V8.04252C37.1837 7.54902 36.7407 7.14893 36.1943 7.14893C35.6479 7.14893 35.205 7.54902 35.205 8.04252V34.1787C33.4448 34.4356 31.9319 35.3658 31.0003 36.6667C30.0686 35.3658 28.5557 34.4356 26.7955 34.1787V8.04252C26.7955 7.54902 26.3526 7.14893 25.8062 7.14893C25.2598 7.14893 24.8168 7.54902 24.8168 8.04252V34.1787C23.0566 34.4356 21.5438 35.3658 20.6121 36.6667C19.6804 35.3658 18.1676 34.4356 16.4074 34.1787V8.04252C16.4074 7.54902 15.9644 7.14893 15.418 7.14893C14.8717 7.14893 14.4287 7.54902 14.4287 8.04252V34.1787C11.4878 34.6078 9.2345 36.916 9.2345 39.6915C9.2345 42.7712 12.0084 45.2766 15.418 45.2766C17.5941 45.2766 19.5098 44.2552 20.6122 42.7161C21.7147 44.2552 23.6304 45.2766 25.8064 45.2766C27.9825 45.2766 29.8982 44.2552 31.0006 42.7161C32.1031 44.2552 34.0188 45.2766 36.1948 45.2766C38.3709 45.2766 40.2866 44.2552 41.389 42.7161C42.4914 44.2552 44.4071 45.2766 46.5832 45.2766C49.9928 45.2766 52.7667 42.7712 52.7667 39.6915C52.766 36.916 50.5127 34.6078 47.5718 34.1787ZM15.4175 43.4893C13.099 43.4893 11.2128 41.7856 11.2128 39.6915C11.2128 37.5974 13.0991 35.8937 15.4175 35.8937C17.736 35.8937 19.6223 37.5974 19.6223 39.6915C19.6223 41.7856 17.7361 43.4893 15.4175 43.4893ZM25.8058 43.4893C23.4872 43.4893 21.6011 41.7856 21.6011 39.6915C21.6011 37.5974 23.4874 35.8937 25.8058 35.8937C28.1243 35.8937 30.0106 37.5974 30.0106 39.6915C30.0106 41.7856 28.1244 43.4893 25.8058 43.4893ZM36.1942 43.4893C33.8756 43.4893 31.9895 41.7856 31.9895 39.6915C31.9895 37.5974 33.8757 35.8937 36.1942 35.8937C38.5127 35.8937 40.3989 37.5974 40.3989 39.6915C40.3989 41.7856 38.5127 43.4893 36.1942 43.4893ZM46.5825 43.4893C44.2639 43.4893 42.3777 41.7856 42.3777 39.6915C42.3777 37.5974 44.264 35.8937 46.5825 35.8937C48.9009 35.8937 50.7872 37.5974 50.7872 39.6915C50.7872 41.7856 48.9009 43.4893 46.5825 43.4893Z" fill="white"/>
  </g>
  <defs>
    <clipPath id="clip0_569_2430">
      <rect width="62" height="56" fill="white"/>
    </clipPath>
  </defs>
</svg>