<svg xmlns="http://www.w3.org/2000/svg" width="67" height="62" viewBox="0 0 67 62" fill="none">
  <path d="M22.6683 55.2057L16.75 57.4532C15.6999 57.8672 14.5694 58.0782 13.4279 58.0732H13.0092C10.6695 58.0732 8.42568 57.2131 6.77129 55.6822C5.11691 54.1513 4.18749 52.0749 4.18749 49.9098V48.4115C4.14933 38.4925 6.04058 28.6481 9.77082 19.349C10.4576 17.6696 11.6856 16.2261 13.2885 15.2142C14.8914 14.2022 16.7918 13.6706 18.7321 13.6915C19.9712 13.6915 21.1982 13.9174 22.343 14.3562C23.4878 14.795 24.528 15.4381 25.4042 16.249C26.2804 17.0598 26.9755 18.0223 27.4496 19.0817C27.9238 20.1411 28.1679 21.2765 28.1679 22.4232V47.6365C28.1656 49.2606 27.6416 50.8474 26.6623 52.1952C25.683 53.543 24.2928 54.5909 22.6683 55.2057Z" stroke="white" stroke-width="5.09333" stroke-miterlimit="10"/>
  <path d="M44.4154 55.1798L50.7525 57.5048C51.7866 57.8718 52.8834 58.0643 53.9908 58.0732C56.3305 58.0732 58.5743 57.2131 60.2287 55.6822C61.8831 54.1513 62.8125 52.0749 62.8125 49.9098V48.4115C62.8507 38.4925 60.9594 28.6481 57.2292 19.349C56.5424 17.6696 55.3144 16.2261 53.7115 15.2142C52.1086 14.2022 50.2082 13.6706 48.2679 13.6915C45.7654 13.6915 43.3653 14.6114 41.5958 16.249C39.8262 17.8865 38.8321 20.1074 38.8321 22.4232V47.5848C38.8317 49.2231 39.3641 50.8235 40.3598 52.178C41.3556 53.5325 42.7687 54.5785 44.4154 55.1798Z" stroke="white" stroke-width="5.09333" stroke-miterlimit="10"/>
  <path d="M20.1837 28.4166C23.7058 28.4166 27.0844 27.1255 29.5801 24.8257C32.0758 22.5259 33.4852 19.4049 33.5 16.1458V1.34326" stroke="white" stroke-width="5.09333" stroke-miterlimit="10"/>
  <path d="M46.8163 28.4166C43.2942 28.4166 39.9156 27.1255 37.4199 24.8257C34.9242 22.5259 33.5148 19.4049 33.5 16.1458V1.34326" stroke="white" stroke-width="5.09333" stroke-miterlimit="10"/>
</svg>