<svg xmlns="http://www.w3.org/2000/svg" width="73" height="66" viewBox="0 0 73 66" fill="none">
  <path d="M30.4167 60.5C18.9458 60.5 13.2104 60.5 9.64685 57.2781C6.08333 54.0565 6.08333 51.6208 6.08333 41.25" stroke="white" stroke-width="4" stroke-linecap="round"/>
  <path d="M66.9167 41.25C66.9167 51.6208 66.9167 54.0565 63.353 57.2781C59.7897 60.5 54.0541 60.5 42.5833 60.5" stroke="white" stroke-width="4" stroke-linecap="round"/>
  <path d="M42.5833 5.5C54.0541 5.5 59.7897 5.5 63.353 8.72182C66.9167 11.9437 66.9167 14.3791 66.9167 24.75" stroke="white" stroke-width="4" stroke-linecap="round"/>
  <path d="M30.4167 5.5C18.9458 5.5 13.2104 5.5 9.64685 8.72182C6.08333 11.9437 6.08333 14.3791 6.08333 24.75" stroke="white" stroke-width="4" stroke-linecap="round"/>
  <path d="M17.9228 38.6645C16.1132 36.7667 15.2083 35.8177 15.2083 33C15.2083 30.1824 16.1131 29.2333 17.9228 27.3356C21.5361 23.5461 27.5961 19.25 36.5 19.25C45.4039 19.25 51.4638 23.5461 55.0773 27.3356C56.8868 29.2333 57.7917 30.1824 57.7917 33C57.7917 35.8177 56.8868 36.7667 55.0773 38.6645C51.4638 42.454 45.4039 46.75 36.5 46.75C27.5961 46.75 21.5362 42.454 17.9228 38.6645Z" stroke="white" stroke-width="4"/>
  <path d="M36.5 38.5C39.8597 38.5 42.5833 36.0376 42.5833 33C42.5833 29.9624 39.8597 27.5 36.5 27.5C33.1403 27.5 30.4167 29.9624 30.4167 33C30.4167 36.0376 33.1403 38.5 36.5 38.5Z" stroke="white" stroke-width="4"/>
</svg>