<svg xmlns="http://www.w3.org/2000/svg" width="29" height="32" viewBox="0 0 29 32" fill="none">
  <path d="M6.94689 4C8.4478 4 9.66453 5.3426 9.66453 6.99878V25.0012C9.66453 26.6574 8.4478 28 6.94689 28C5.44598 28 4.22925 26.6574 4.22925 25.0012V6.99878C4.22925 5.3426 5.44598 4 6.94689 4ZM14.8011 9.33333C16.302 9.33333 17.5187 10.6759 17.5187 12.3321V25.0012C17.5187 26.6574 16.302 28 14.8011 28C13.3001 28 12.0834 26.6574 12.0834 25.0012V12.3321C12.0834 10.6759 13.3001 9.33333 14.8011 9.33333ZM22.6552 14.6667C24.1561 14.6667 25.3729 16.0093 25.3729 17.6654V25.0012C25.3729 26.6574 24.1561 28 22.6552 28C21.1543 28 19.9376 26.6574 19.9376 25.0012V17.6654C19.9376 16.0093 21.1543 14.6667 22.6552 14.6667Z" fill="#EFEFEF"/>
</svg>